<?xml version="1.0" encoding="UTF-8" standalone="no"?>
<svg
   version="1.1"
   viewBox="0.00 0.00 669.00 346.00"
   id="svg242"
   sodipodi:docname="logo2semfolha.svg"
   inkscape:version="1.4.2 (ebf0e940d0, 2025-05-08)"
   xmlns:inkscape="http://www.inkscape.org/namespaces/inkscape"
   xmlns:sodipodi="http://sodipodi.sourceforge.net/DTD/sodipodi-0.dtd"
   xmlns="http://www.w3.org/2000/svg"
   xmlns:svg="http://www.w3.org/2000/svg">
  <defs
     id="defs242" />
  <sodipodi:namedview
     id="namedview242"
     pagecolor="#ffffff"
     bordercolor="#000000"
     borderopacity="0.25"
     inkscape:showpageshadow="2"
     inkscape:pageopacity="0.0"
     inkscape:pagecheckerboard="0"
     inkscape:deskcolor="#d1d1d1"
     inkscape:zoom="2.7832586"
     inkscape:cx="567.50027"
     inkscape:cy="202.81982"
     inkscape:window-width="1512"
     inkscape:window-height="814"
     inkscape:window-x="0"
     inkscape:window-y="0"
     inkscape:window-maximized="1"
     inkscape:current-layer="svg242" />
  <path
     fill="#90abcd"
     d="   M 487.19 77.58   Q 489.13 87.63 488.05 96.82   A 0.60 0.59 5.0 0 1 487.41 97.35   C 483.47 97.11 479.17 96.91 476.84 93.10   A 1.44 1.40 -59.3 0 1 476.64 92.27   Q 477.02 87.19 474.08 84.40   L 472.66 82.99   A 0.41 0.40 -29.7 0 0 472.25 82.88   Q 471.79 83.00 471.59 83.52   Q 471.53 83.10 471.18 83.03   A 0.32 0.31 25.1 0 0 470.87 83.14   L 468.85 85.59   A 2.88 2.80 77.9 0 0 468.51 86.13   Q 466.50 90.26 465.44 91.64   A 5.77 5.68 -17.0 0 0 464.59 93.21   Q 463.59 96.08 461.51 101.19   Q 460.15 104.53 458.34 107.80   Q 457.20 109.87 454.99 114.29   A 1.96 1.95 15.1 0 1 453.12 115.36   Q 447.08 114.97 441.87 112.96   Q 442.39 109.65 443.56 106.61   Q 445.16 102.46 445.48 101.56   Q 446.99 97.31 448.59 93.12   A 6.74 6.67 75.1 0 1 449.64 91.29   Q 453.31 86.66 454.99 81.10   Q 456.85 77.41 461.66 73.14   C 466.89 68.50 473.84 66.01 480.32 69.44   Q 485.17 71.99 487.19 77.58   Z"
     id="path181" />
  <path
     fill="#3e5d9a"
     d="   M 198.37 116.52   Q 197.55 116.03 196.96 117.43   C 195.25 121.45 195.44 125.58 194.35 130.11   A 0.70 0.69 -81.4 0 1 193.64 130.64   C 184.95 130.24 180.53 121.40 178.71 113.81   L 180.31 100.53   L 181.93 109.55   A 2.77 2.77 0.0 0 0 184.25 111.80   Q 188.68 112.46 191.32 115.12   A 1.52 1.51 64.9 0 0 192.52 115.56   L 195.81 115.30   A 1.07 1.06 4.9 0 0 196.76 114.51   Q 201.48 97.22 197.75 82.73   C 195.67 74.63 188.81 72.60 181.64 75.98   Q 178.06 77.67 175.02 81.26   Q 167.42 90.23 165.23 94.17   A 1.24 1.20 -37.2 0 0 165.10 95.03   Q 167.11 103.64 175.63 101.79   A 1.51 1.49 14.8 0 0 176.45 101.32   Q 177.94 99.66 178.86 100.08   C 176.43 103.50 173.87 106.87 171.82 110.36   Q 159.87 130.70 151.67 150.15   Q 147.03 161.16 145.32 164.98   C 140.76 175.14 136.89 184.54 132.75 194.35   Q 133.59 188.64 135.98 183.24   A 0.40 0.40 0.0 0 0 135.68 182.68   Q 127.69 181.29 119.64 181.99   A 0.64 0.63 -21.6 0 1 119.09 181.76   Q 118.85 181.45 118.56 181.32   Q 110.82 177.78 101.56 175.73   A 0.50 0.50 0.0 0 0 100.96 176.17   Q 99.59 190.46 99.82 204.23   C 99.95 211.78 100.58 216.68 102.97 222.18   Q 103.00 222.35 103.02 222.52   L 107.23 226.88   Q 103.31 225.51 101.64 222.59   C 100.44 220.50 99.05 216.67 98.97 213.70   C 98.90 210.44 98.22 205.76 98.34 201.43   Q 98.86 181.74 100.66 162.39   Q 103.48 154.24 103.93 145.66   C 104.14 141.68 104.71 137.49 105.63 134.56   A 0.61 0.61 0.0 0 1 106.36 134.15   L 114.34 136.13   A 0.69 0.69 0.0 0 0 115.20 135.54   L 116.05 128.29   A 0.92 0.92 0.0 0 0 115.65 127.43   Q 111.87 124.86 107.66 125.25   A 0.66 0.65 81.5 0 1 106.97 124.73   L 104.28 112.00   C 107.10 116.48 116.94 126.21 121.57 118.44   A 2.11 2.05 -28.9 0 0 121.85 117.52   Q 122.44 107.89 121.28 98.28   Q 120.97 96.43 121.37 94.59   Q 123.82 102.57 124.00 111.75   Q 124.34 130.01 122.91 143.24   Q 121.31 158.07 118.90 178.75   Q 118.84 179.23 118.98 179.64   A 0.30 0.30 0.0 0 0 119.53 179.68   C 120.81 177.02 122.78 174.14 124.13 170.58   Q 128.07 160.21 130.78 154.79   Q 140.96 134.44 154.17 109.68   Q 162.20 94.65 173.82 81.30   C 177.62 76.94 182.56 72.90 188.21 72.99   Q 196.06 73.12 198.66 81.89   Q 200.57 88.36 200.52 96.01   Q 200.46 106.40 198.37 116.52   Z"
     id="path184" />
  <path
     fill="#7e9dc9"
     d="   M 180.31 100.53   Q 179.66 99.81 178.86 100.08   Q 177.94 99.66 176.45 101.32   A 1.51 1.49 14.8 0 1 175.63 101.79   Q 167.11 103.64 165.10 95.03   A 1.24 1.20 -37.2 0 1 165.23 94.17   Q 167.42 90.23 175.02 81.26   Q 178.06 77.67 181.64 75.98   C 188.81 72.60 195.67 74.63 197.75 82.73   Q 201.48 97.22 196.76 114.51   A 1.07 1.06 4.9 0 1 195.81 115.30   L 192.52 115.56   A 1.52 1.51 64.9 0 1 191.32 115.12   Q 188.68 112.46 184.25 111.80   A 2.77 2.77 0.0 0 1 181.93 109.55   L 180.31 100.53   Z"
     id="path185" />
  <path
     fill="#4f6ea3"
     d="   M 487.19 77.58   Q 489.80 83.49 489.96 90.75   Q 490.28 105.55 486.58 118.86   L 484.02 111.94   A 0.82 0.81 -11.9 0 0 483.20 111.41   L 474.49 112.11   A 0.71 0.71 0.0 0 0 473.87 112.61   Q 471.27 121.32 468.80 129.39   C 466.94 135.44 463.82 142.12 461.25 148.41   L 458.78 154.67   A 0.81 0.61 -23.1 0 1 458.66 154.88   Q 457.34 156.51 457.74 158.82   Q 458.94 165.78 461.41 171.87   A 0.53 0.53 0.0 0 0 462.06 172.17   L 464.80 171.22   Q 458.43 181.42 452.39 191.89   Q 449.86 196.29 450.00 198.81   Q 450.07 200.03 450.68 206.16   C 451.41 213.60 452.97 222.55 457.01 229.23   Q 451.78 226.34 445.08 227.98   Q 439.39 229.37 438.66 234.56   Q 434.76 228.07 433.42 220.70   Q 432.79 217.25 432.11 213.77   Q 434.29 206.33 433.48 197.83   A 1.38 1.37 75.1 0 0 431.55 196.71   C 425.39 199.44 423.05 206.05 416.97 208.48   Q 425.06 200.36 431.08 191.93   Q 432.96 186.68 436.77 183.73   C 439.04 181.97 442.73 181.15 445.07 179.83   Q 448.55 177.87 450.27 174.66   Q 451.78 171.85 453.29 167.85   Q 455.12 162.96 455.84 157.95   Q 466.63 134.77 472.37 114.31   Q 475.41 103.47 474.96 90.09   Q 474.92 88.98 474.52 87.26   Q 474.20 85.86 474.08 84.40   Q 477.02 87.19 476.64 92.27   A 1.44 1.40 -59.3 0 0 476.84 93.10   C 479.17 96.91 483.47 97.11 487.41 97.35   A 0.60 0.59 5.0 0 0 488.05 96.82   Q 489.13 87.63 487.19 77.58   Z"
     id="path186" />
  <path
     fill="#3e5d9a"
     d="   M 454.99 81.10   Q 453.31 86.66 449.64 91.29   A 6.74 6.67 75.1 0 0 448.59 93.12   Q 446.99 97.31 445.48 101.56   Q 445.16 102.46 443.56 106.61   Q 442.39 109.65 441.87 112.96   Q 440.99 117.25 439.66 121.43   Q 437.72 127.53 437.35 129.87   Q 436.45 135.69 435.49 141.49   C 435.11 143.77 435.25 145.88 435.13 148.60   A 1.03 1.00 20.8 0 0 435.53 149.46   Q 441.72 154.21 449.31 153.72   A 0.58 0.58 0.0 0 0 449.85 153.23   Q 451.11 144.53 451.33 142.49   Q 451.73 138.65 453.60 135.78   Q 450.62 152.32 449.01 170.22   A 0.29 0.29 0.0 0 0 449.56 170.38   L 455.84 157.95   Q 455.12 162.96 453.29 167.85   Q 451.78 171.85 450.27 174.66   Q 448.55 177.87 445.07 179.83   C 442.73 181.15 439.04 181.97 436.77 183.73   Q 432.96 186.68 431.08 191.93   Q 430.71 178.82 430.99 175.50   Q 431.93 164.49 432.91 153.50   Q 435.10 128.90 442.32 106.06   Q 446.46 92.98 454.99 81.10   Z"
     id="path188" />
  <path
     fill="#728fbc"
     d="   M 471.59 83.52   C 470.80 84.75 469.79 85.91 469.13 87.15   C 460.79 102.66 456.72 118.34 453.60 135.78   Q 451.73 138.65 451.33 142.49   Q 451.11 144.53 449.85 153.23   A 0.58 0.58 0.0 0 1 449.31 153.72   Q 441.72 154.21 435.53 149.46   A 1.03 1.00 20.8 0 1 435.13 148.60   C 435.25 145.88 435.11 143.77 435.49 141.49   Q 436.45 135.69 437.35 129.87   Q 437.72 127.53 439.66 121.43   Q 440.99 117.25 441.87 112.96   Q 447.08 114.97 453.12 115.36   A 1.96 1.95 15.1 0 0 454.99 114.29   Q 457.20 109.87 458.34 107.80   Q 460.15 104.53 461.51 101.19   Q 463.59 96.08 464.59 93.21   A 5.77 5.68 -17.0 0 1 465.44 91.64   Q 466.50 90.26 468.51 86.13   A 2.88 2.80 77.9 0 1 468.85 85.59   L 470.87 83.14   A 0.32 0.31 25.1 0 1 471.18 83.03   Q 471.53 83.10 471.59 83.52   Z"
     id="path190" />
  <path
     fill="#728fbc"
     d="   M 121.37 94.59   Q 120.97 96.43 121.28 98.28   L 120.15 109.89   A 0.64 0.64 0.0 0 1 118.90 109.98   C 117.88 105.80 115.75 99.29 112.59 96.91   C 102.75 89.52 96.14 103.54 96.07 111.06   Q 96.02 117.38 95.86 123.84   L 84.31 147.93   L 78.43 158.39   A 0.38 0.38 0.0 0 1 77.94 158.55   C 72.36 155.97 71.40 151.73 68.32 144.97   A 1.21 1.19 44.4 0 1 68.30 144.01   Q 71.41 136.42 73.79 132.12   Q 76.66 126.94 79.37 121.70   Q 84.22 112.28 84.94 110.92   Q 85.14 110.54 84.11 110.65   Q 89.74 100.79 97.41 92.93   Q 102.69 87.53 110.22 87.67   Q 118.09 87.82 121.37 94.59   Z   M 92.31 127.39   L 90.00 125.08   A 0.96 0.94 -32.6 0 0 88.99 124.87   C 80.72 128.03 73.25 130.61 73.01 140.79   A 1.04 1.02 20.9 0 0 73.38 141.60   Q 79.77 146.74 86.21 141.58   Q 87.13 140.85 87.75 138.07   A 2.48 2.36 -27.7 0 1 87.94 137.51   L 92.45 128.22   A 0.74 0.73 -55.2 0 0 92.31 127.39   Z"
     id="path191" />
  <path
     fill="#728fbc"
     d="   M 59.15 119.54   L 58.99 118.84   A 0.29 0.28 50.0 0 0 58.45 118.79   L 57.14 121.89   A 1.10 1.05 57.9 0 0 57.08 122.18   Q 56.88 126.81 55.65 131.18   C 50.95 134.77 45.01 136.96 39.28 134.33   A 0.72 0.71 16.0 0 1 38.87 133.60   L 39.73 126.05   Q 52.30 127.74 58.04 117.02   A 3.17 3.06 -27.6 0 0 58.37 116.03   C 59.20 110.51 60.08 103.45 59.30 97.37   C 58.94 94.57 57.78 92.54 55.17 91.90   Q 49.84 90.58 45.57 92.11   A 2.57 2.57 0.0 0 0 43.89 94.20   L 40.90 117.10   L 40.31 113.02   L 42.95 94.55   A 4.01 4.00 79.0 0 1 44.88 91.68   C 49.38 89.05 57.86 89.11 59.73 95.27   Q 60.47 97.71 60.71 101.49   Q 60.98 105.62 59.15 119.54   Z"
     id="path192" />
  <path
     fill="#90abcd"
     d="   M 39.73 126.05   L 40.90 117.10   L 43.89 94.20   A 2.57 2.57 0.0 0 1 45.57 92.11   Q 49.84 90.58 55.17 91.90   C 57.78 92.54 58.94 94.57 59.30 97.37   C 60.08 103.45 59.20 110.51 58.37 116.03   A 3.17 3.06 -27.6 0 1 58.04 117.02   Q 52.30 127.74 39.73 126.05   Z"
     id="path193" />
  <path
     fill="#4f6ea3"
     d="   M 121.28 98.28   Q 122.44 107.89 121.85 117.52   A 2.11 2.05 -28.9 0 1 121.57 118.44   C 116.94 126.21 107.10 116.48 104.28 112.00   Q 103.71 111.42 102.99 112.01   Q 102.40 111.34 101.51 113.01   Q 98.64 118.38 95.86 123.84   Q 96.02 117.38 96.07 111.06   C 96.14 103.54 102.75 89.52 112.59 96.91   C 115.75 99.29 117.88 105.80 118.90 109.98   A 0.64 0.64 0.0 0 0 120.15 109.89   L 121.28 98.28   Z"
     id="path194" />
  <path
     fill="#3e5d9a"
     d="   M 84.11 110.65   Q 85.14 110.54 84.94 110.92   Q 84.22 112.28 79.37 121.70   Q 76.66 126.94 73.79 132.12   Q 71.41 136.42 68.30 144.01   A 1.21 1.19 44.4 0 0 68.32 144.97   C 71.40 151.73 72.36 155.97 77.94 158.55   A 0.38 0.38 0.0 0 0 78.43 158.39   L 84.31 147.93   Q 79.27 158.74 73.41 174.60   Q 65.68 195.56 62.52 205.68   Q 57.20 222.78 52.44 240.04   Q 50.52 247.00 48.57 254.85   Q 47.27 251.08 49.06 245.96   A 1.50 1.49 15.4 0 0 47.94 244.00   Q 47.64 243.94 47.02 243.43   A 1.16 1.11 74.7 0 1 48.09 241.46   Q 48.75 241.74 49.40 241.52   A 1.10 1.09 -89.3 0 0 50.07 240.86   Q 53.72 230.60 56.88 219.34   Q 57.11 218.51 59.46 211.30   Q 61.73 204.33 61.74 203.19   Q 61.76 197.08 58.47 192.83   C 56.96 190.89 53.12 188.51 50.78 186.48   Q 52.25 182.60 56.34 170.34   Q 58.73 163.17 64.55 148.80   Q 69.91 135.55 84.11 110.65   Z"
     id="path197" />
  <path
     fill="#90abcd"
     d="   M 486.58 118.86   C 484.37 127.34 481.34 135.53 478.31 143.74   C 476.36 149.02 473.55 154.22 471.10 159.47   Q 471.13 158.78 470.19 159.19   A 0.97 0.95 -86.8 0 0 469.73 159.61   L 467.24 163.91   A 0.24 0.24 0.0 0 1 466.81 163.87   L 461.25 148.41   C 463.82 142.12 466.94 135.44 468.80 129.39   Q 471.27 121.32 473.87 112.61   A 0.71 0.71 0.0 0 1 474.49 112.11   L 483.20 111.41   A 0.82 0.81 -11.9 0 1 484.02 111.94   L 486.58 118.86   Z"
     id="path198" />
  <path
     fill="#304a83"
     d="   M 104.28 112.00   L 106.97 124.73   A 0.66 0.65 81.5 0 0 107.66 125.25   Q 111.87 124.86 115.65 127.43   A 0.92 0.92 0.0 0 1 116.05 128.29   L 115.20 135.54   A 0.69 0.69 0.0 0 1 114.34 136.13   L 106.36 134.15   A 0.61 0.61 0.0 0 0 105.63 134.56   C 104.71 137.49 104.14 141.68 103.93 145.66   Q 103.48 154.24 100.66 162.39   Q 101.27 153.67 102.01 145.11   Q 102.01 145.03 103.21 134.93   Q 104.02 128.12 103.90 120.25   Q 103.82 115.36 102.99 112.01   Q 103.71 111.42 104.28 112.00   Z"
     id="path199" />
  <path
     fill="#5777ae"
     d="   M 40.90 117.10   L 39.73 126.05   L 38.87 133.60   A 0.72 0.71 16.0 0 0 39.28 134.33   C 45.01 136.96 50.95 134.77 55.65 131.18   C 55.13 134.94 53.49 138.77 50.13 140.73   Q 47.79 142.09 46.96 142.69   A 10.45 10.45 0.0 0 0 44.05 145.93   L 40.95 151.28   A 0.80 0.80 0.0 0 1 39.47 150.78   Q 40.07 145.70 38.16 141.70   A 1.78 1.76 33.9 0 1 37.99 140.86   L 38.42 132.77   A 0.27 0.24 -68.0 0 0 38.36 132.60   Q 37.99 132.23 37.49 132.64   L 40.31 113.02   L 40.90 117.10   Z"
     id="path200" />
  <path
     fill="#304a83"
     d="   M 178.71 113.81   C 180.53 121.40 184.95 130.24 193.64 130.64   A 0.70 0.69 -81.4 0 0 194.35 130.11   C 195.44 125.58 195.25 121.45 196.96 117.43   Q 197.55 116.03 198.37 116.52   Q 197.47 121.47 196.76 126.39   Q 191.77 161.15 187.52 196.00   Q 186.49 204.51 185.99 213.02   Q 185.63 213.99 185.48 213.94   A 1.36 1.35 12.7 0 1 184.56 212.50   L 186.06 199.60   A 2.02 1.15 -56.2 0 0 186.08 199.33   L 186.10 191.82   A 2.11 1.85 -41.2 0 1 186.17 191.30   Q 187.88 184.57 188.13 178.04   Q 188.23 175.29 190.59 163.74   A 2.67 2.28 54.6 0 0 190.63 163.29   L 190.61 155.39   A 1.43 1.39 -65.7 0 0 190.28 154.48   Q 185.91 149.34 184.57 148.45   C 181.76 146.58 179.34 147.19 175.34 147.59   A 0.82 0.82 0.0 0 0 174.65 148.12   Q 173.68 150.67 173.31 153.58   Q 172.11 163.24 172.20 172.54   C 172.23 176.10 171.03 179.35 170.77 182.84   Q 169.39 201.45 167.35 220.10   C 166.91 210.87 167.52 203.93 167.94 195.97   Q 168.30 189.17 168.36 188.55   Q 171.62 154.21 173.77 142.75   Q 176.45 128.49 178.71 113.81   Z"
     id="path201" />
  <path
     fill="#3e5d9a"
     d="   M 59.15 119.54   L 49.88 185.50   Q 49.44 187.72 48.14 184.59   A 1.76 1.69 8.2 0 0 47.57 183.86   Q 41.36 179.29 33.88 178.79   A 0.55 0.54 4.3 0 0 33.30 179.28   Q 32.88 183.70 33.76 187.88   Q 34.16 189.76 33.43 191.73   C 32.33 194.73 31.71 196.33 31.44 199.49   Q 30.89 205.92 29.89 213.93   A 0.35 0.34 -62.3 0 1 29.29 214.12   Q 28.85 213.63 28.90 212.45   C 29.09 210.14 28.94 207.59 29.28 205.52   C 30.00 201.13 29.77 196.55 30.35 192.49   Q 30.77 189.50 33.51 162.75   Q 35.50 143.28 37.49 132.64   Q 37.99 132.23 38.36 132.60   A 0.27 0.24 -68.0 0 1 38.42 132.77   L 37.99 140.86   A 1.78 1.76 33.9 0 0 38.16 141.70   Q 40.07 145.70 39.47 150.78   A 0.80 0.80 0.0 0 0 40.95 151.28   L 44.05 145.93   A 10.45 10.45 0.0 0 1 46.96 142.69   Q 47.79 142.09 50.13 140.73   C 53.49 138.77 55.13 134.94 55.65 131.18   Q 56.88 126.81 57.08 122.18   A 1.10 1.05 57.9 0 1 57.14 121.89   L 58.45 118.79   A 0.29 0.28 50.0 0 1 58.99 118.84   L 59.15 119.54   Z"
     id="path202" />
  <ellipse
     fill="#90abcd"
     cx="0.00"
     cy="0.00"
     transform="translate(511.32,131.00) rotate(-44.1)"
     rx="10.68"
     ry="9.88"
     id="ellipse202" />
  <path
     fill="#90abcd"
     d="   M 92.45 128.22   L 87.94 137.51   A 2.48 2.36 -27.7 0 0 87.75 138.07   Q 87.13 140.85 86.21 141.58   Q 79.77 146.74 73.38 141.60   A 1.04 1.02 20.9 0 1 73.01 140.79   C 73.25 130.61 80.72 128.03 88.99 124.87   A 0.96 0.94 -32.6 0 1 90.00 125.08   L 92.31 127.39   A 0.74 0.73 -55.2 0 1 92.45 128.22   Z"
     id="path203" />
  <path
     fill="#5777ae"
     d="   M 185.99 213.02   Q 186.12 215.52 186.29 217.97   Q 187.35 232.94 189.86 247.71   C 186.68 241.14 186.70 233.12 185.74 225.95   A 0.96 0.93 -82.5 0 0 185.18 225.20   C 183.24 224.37 181.47 225.87 180.05 227.22   A 0.98 0.94 -67.6 0 1 179.44 227.49   L 170.35 228.22   A 0.93 0.92 -2.1 0 0 169.50 229.13   Q 169.30 239.33 171.56 250.14   C 172.43 254.33 174.23 258.85 175.54 263.31   Q 170.39 255.49 169.34 246.94   Q 167.96 235.76 167.35 220.10   Q 169.39 201.45 170.77 182.84   C 171.03 179.35 172.23 176.10 172.20 172.54   Q 172.11 163.24 173.31 153.58   Q 173.68 150.67 174.65 148.12   A 0.82 0.82 0.0 0 1 175.34 147.59   C 179.34 147.19 181.76 146.58 184.57 148.45   Q 185.91 149.34 190.28 154.48   A 1.43 1.39 -65.7 0 1 190.61 155.39   L 190.63 163.29   A 2.67 2.28 54.6 0 1 190.59 163.74   Q 188.23 175.29 188.13 178.04   Q 187.88 184.57 186.17 191.30   A 2.11 1.85 -41.2 0 0 186.10 191.82   L 186.08 199.33   A 2.02 1.15 -56.2 0 1 186.06 199.60   L 184.56 212.50   A 1.36 1.35 12.7 0 0 185.48 213.94   Q 185.63 213.99 185.99 213.02   Z"
     id="path204" />
  <path
     fill="#728fbc"
     d="   M 461.25 148.41   L 466.81 163.87   A 0.24 0.24 0.0 0 0 467.24 163.91   L 469.73 159.61   A 0.97 0.95 -86.8 0 1 470.19 159.19   Q 471.13 158.78 471.10 159.47   L 464.80 171.22   L 462.06 172.17   A 0.53 0.53 0.0 0 1 461.41 171.87   Q 458.94 165.78 457.74 158.82   Q 457.34 156.51 458.66 154.88   A 0.81 0.61 -23.1 0 0 458.78 154.67   L 461.25 148.41   Z"
     id="path205" />
  <path
     fill="#304a83"
     d="   M 392.24 154.29   Q 389.51 155.13 382.58 156.63   C 377.80 157.66 362.94 162.72 367.19 171.08   C 369.13 174.88 372.19 174.83 375.91 173.10   C 381.94 170.27 388.62 168.97 394.97 170.11   A 1.58 1.56 -18.7 0 1 395.71 170.47   C 399.48 173.86 398.89 177.85 398.26 182.71   Q 397.67 187.24 395.92 190.59   C 394.37 193.52 391.86 195.43 389.81 198.04   Q 380.40 210.03 379.29 225.57   A 0.08 0.06 71.1 0 0 379.41 225.65   Q 379.44 225.60 379.60 225.65   A 0.16 0.04 78.7 0 0 379.61 225.46   Q 379.59 225.38 379.61 225.30   Q 379.62 225.24 379.69 225.19   Q 384.45 221.75 389.81 219.53   C 384.95 227.64 379.75 234.89 371.86 240.08   Q 365.41 244.32 357.35 243.07   Q 346.50 241.38 342.76 230.48   A 0.32 0.32 0.0 0 0 342.20 230.41   C 339.92 233.72 336.10 237.00 333.42 239.02   C 326.65 244.14 317.83 245.87 310.41 241.15   Q 301.31 235.36 300.20 224.23   Q 302.96 230.79 306.78 235.99   C 308.82 238.76 316.83 242.02 320.43 241.98   Q 325.06 241.93 329.14 239.14   A 1.82 1.81 36.4 0 0 328.65 235.91   Q 328.09 235.74 324.64 234.52   C 319.82 232.82 315.42 226.42 313.28 222.02   A 1.44 1.44 0.0 0 1 313.26 220.81   Q 315.62 215.51 315.36 209.20   Q 315.85 195.83 318.52 182.81   Q 319.21 179.59 320.90 176.94   Q 317.39 195.07 316.44 212.75   C 316.22 216.88 316.58 222.92 319.07 226.43   C 321.03 229.19 324.78 228.32 326.94 226.44   Q 336.30 218.27 340.06 208.29   C 346.50 191.21 352.69 172.81 367.59 161.34   Q 378.15 153.22 392.24 154.29   Z   M 362.88 226.93   C 367.36 225.65 372.43 219.62 374.52 216.75   Q 383.61 204.21 389.52 189.29   Q 391.08 185.33 392.68 181.30   C 394.23 177.36 394.92 173.52 390.53 171.70   C 381.21 167.85 373.10 178.19 369.45 185.21   C 363.64 196.39 359.37 207.93 359.26 220.76   Q 359.24 223.44 360.38 225.80   A 2.14 2.12 69.2 0 0 362.88 226.93   Z   M 344.69 208.29   L 349.63 209.94   A 1.05 1.02 87.8 0 1 350.26 210.54   Q 352.30 215.52 352.32 221.75   A 0.82 0.80 -13.9 0 1 351.86 222.49   L 349.68 223.54   A 1.04 1.04 0.0 0 0 349.14 224.15   L 348.45 226.22   A 0.89 0.88 86.8 0 1 348.00 226.73   L 344.75 228.30   A 1.73 1.73 0.0 0 0 343.93 230.59   Q 348.93 241.25 359.71 241.47   A 0.73 0.73 0.0 0 0 360.40 241.02   Q 362.41 236.13 360.96 232.96   Q 357.75 225.93 358.00 218.99   C 358.26 211.63 360.08 203.64 353.00 200.55   A 1.16 1.14 44.0 0 0 352.05 200.56   C 348.72 202.11 345.41 203.80 344.38 207.72   A 0.48 0.48 0.0 0 0 344.69 208.29   Z"
     id="path206" />
  <path
     fill="#4f6ea3"
     d="   M 410.08 215.42   Q 410.38 222.93 412.50 230.42   A 0.29 0.29 0.0 0 0 412.99 230.54   Q 418.30 225.08 423.46 219.48   Q 425.42 217.34 428.87 215.53   C 422.43 222.35 415.77 228.78 409.72 235.99   Q 408.61 237.31 408.37 241.28   Q 406.98 264.10 402.57 282.58   Q 401.59 286.67 398.60 296.10   Q 394.07 310.41 386.47 321.23   Q 384.28 324.35 380.78 327.34   L 383.08 322.93   A 0.73 0.72 -49.5 0 0 383.02 322.15   Q 380.26 318.49 376.08 317.58   C 372.97 316.91 368.17 318.31 365.80 318.30   C 360.37 318.25 356.87 316.58 350.79 313.93   A 1.85 1.79 -5.5 0 1 350.04 313.33   L 344.67 305.85   A 0.90 0.90 0.0 0 0 343.04 306.40   L 343.48 319.32   Q 340.78 310.28 342.44 300.80   C 345.46 296.56 346.87 291.67 348.65 286.87   A 0.43 0.43 0.0 0 1 349.27 286.65   Q 358.20 291.78 357.49 302.56   Q 357.45 305.48 357.32 308.70   Q 357.28 309.88 358.59 313.08   C 361.14 319.26 367.49 317.29 371.01 313.49   C 373.42 310.89 375.51 307.54 376.74 304.41   Q 385.57 282.02 388.81 257.67   A 0.55 0.55 0.0 0 0 387.95 257.15   L 386.48 258.20   L 381.65 260.38   A 0.80 0.79 -37.0 0 1 380.79 260.26   Q 377.91 257.78 380.12 254.22   Q 385.06 246.21 391.19 239.95   A 2.25 2.19 78.8 0 0 391.69 239.18   Q 393.48 234.55 391.28 230.90   L 392.00 217.73   A 0.41 0.41 0.0 0 0 391.25 217.47   L 389.81 219.53   Q 384.45 221.75 379.69 225.19   Q 379.62 225.24 379.61 225.30   Q 379.59 225.38 379.61 225.46   A 0.16 0.04 78.7 0 1 379.60 225.65   Q 379.44 225.60 379.41 225.65   A 0.08 0.06 71.1 0 1 379.29 225.57   Q 380.40 210.03 389.81 198.04   C 391.86 195.43 394.37 193.52 395.92 190.59   Q 397.67 187.24 398.26 182.71   C 398.89 177.85 399.48 173.86 395.71 170.47   A 1.58 1.56 -18.7 0 0 394.97 170.11   C 388.62 168.97 381.94 170.27 375.91 173.10   C 372.19 174.83 369.13 174.88 367.19 171.08   C 362.94 162.72 377.80 157.66 382.58 156.63   Q 389.51 155.13 392.24 154.29   Q 394.67 155.17 396.90 156.26   C 400.62 158.07 404.44 158.57 407.73 160.52   C 412.67 163.45 412.48 167.59 412.28 173.76   C 412.01 182.11 411.29 188.87 411.00 197.09   Q 410.68 206.11 410.08 215.42   Z   M 398.80 286.20   C 400.25 284.16 401.45 281.70 402.09 279.12   Q 404.34 270.01 405.46 258.72   A 0.95 0.94 21.6 0 0 405.09 257.88   Q 402.32 255.79 398.44 258.12   Q 395.28 260.02 389.79 263.74   A 1.12 1.10 -16.4 0 0 389.30 264.62   C 388.97 273.03 393.23 279.53 397.08 286.12   A 1.03 1.03 0.0 0 0 398.80 286.20   Z"
     id="path207" />
  <path
     fill="#304a83"
     d="   M 581.18 155.24   Q 571.74 156.11 569.32 156.85   Q 557.70 160.40 549.69 173.13   Q 547.84 176.07 546.20 179.09   A 2.34 2.30 -60.0 0 0 547.00 182.18   Q 547.73 182.63 549.14 182.44   Q 554.24 181.74 559.26 180.84   Q 562.52 180.25 565.36 176.63   Q 567.22 174.27 571.10 172.75   Q 564.65 179.05 562.85 182.36   C 556.03 194.90 551.95 209.06 553.03 223.21   Q 553.05 224.48 552.29 224.52   L 552.07 223.19   L 551.58 212.51   A 1.83 1.77 31.5 0 0 551.38 211.73   L 548.10 205.34   A 8.94 8.87 -63.6 0 1 547.23 202.72   C 546.35 197.56 547.42 193.45 541.70 191.01   A 0.44 0.44 0.0 0 0 541.11 191.29   Q 539.80 195.81 537.08 199.38   Q 538.32 193.93 539.96 189.46   Q 544.24 177.85 551.90 168.15   C 558.61 159.63 569.83 152.61 581.18 155.24   Z"
     id="path208" />
  <path
     fill="#5777ae"
     d="   M 270.87 213.56   Q 271.11 210.14 270.11 210.00   Q 269.87 207.68 270.13 204.55   Q 271.00 194.40 272.02 186.45   A 4.43 4.21 62.9 0 1 272.40 185.16   C 274.08 181.64 273.73 177.16 273.65 173.23   C 273.58 169.37 271.89 166.37 268.70 164.61   A 1.72 1.67 -31.4 0 0 267.77 164.40   C 263.01 164.63 260.70 164.02 256.77 161.59   C 252.24 158.79 248.52 158.32 243.20 160.24   Q 233.86 163.61 231.11 173.26   A 0.63 0.62 12.3 0 0 231.62 174.04   Q 234.84 174.52 238.47 173.46   Q 234.98 176.23 232.75 179.78   A 5.96 5.92 -4.7 0 1 231.64 181.08   Q 230.65 181.95 230.29 182.53   Q 225.02 190.99 223.39 197.71   Q 221.37 206.08 220.69 217.82   Q 219.37 215.25 216.12 213.84   Q 212.35 212.20 208.40 210.66   Q 206.95 210.09 203.96 211.72   C 204.26 196.25 211.59 180.35 221.38 168.62   C 231.14 156.92 249.05 147.75 261.58 161.96   A 2.75 2.73 66.0 0 0 263.92 162.87   Q 272.64 161.92 274.84 170.55   Q 275.29 172.32 274.93 177.96   Q 274.74 181.01 273.95 185.26   Q 271.37 199.26 270.87 213.56   Z"
     id="path209" />
  <path
     fill="#5777ae"
     d="   M 588.76 158.08   C 585.09 158.08 580.93 155.63 577.53 156.33   C 571.07 157.66 565.03 161.51 563.08 168.39   Q 561.75 173.08 565.25 174.93   A 0.85 0.85 0.0 0 0 566.22 174.81   Q 570.60 170.79 575.70 170.73   Q 573.40 172.20 571.10 172.75   Q 567.22 174.27 565.36 176.63   Q 562.52 180.25 559.26 180.84   Q 554.24 181.74 549.14 182.44   Q 547.73 182.63 547.00 182.18   A 2.34 2.30 -60.0 0 1 546.20 179.09   Q 547.84 176.07 549.69 173.13   Q 557.70 160.40 569.32 156.85   Q 571.74 156.11 581.18 155.24   Q 584.84 155.56 588.76 158.08   Z"
     id="path210" />
  <path
     fill="#7e9dc9"
     d="   M 588.76 158.08   Q 591.96 159.87 595.44 161.15   Q 600.56 163.04 602.03 164.26   Q 606.35 167.88 606.27 174.22   Q 606.22 178.23 605.68 181.58   Q 599.02 182.86 593.99 182.90   Q 589.21 182.94 585.08 179.74   Q 585.29 176.22 585.06 175.25   Q 584.51 172.93 582.00 171.66   Q 580.93 171.11 578.90 171.05   Q 577.30 170.99 575.70 170.73   Q 570.60 170.79 566.22 174.81   A 0.85 0.85 0.0 0 1 565.25 174.93   Q 561.75 173.08 563.08 168.39   C 565.03 161.51 571.07 157.66 577.53 156.33   C 580.93 155.63 585.09 158.08 588.76 158.08   Z"
     id="path211" />
  <path
     fill="#7e9dc9"
     d="   M 270.11 210.00   L 270.48 219.55   A 1.45 1.45 0.0 0 1 269.08 221.05   C 264.53 221.21 261.63 219.14 258.73 215.27   C 256.58 212.41 254.78 209.98 251.81 207.34   Q 249.77 205.53 248.05 203.37   A 1.55 1.55 0.0 0 1 247.79 201.89   Q 247.82 201.80 250.73 195.25   C 252.89 190.36 253.91 185.29 255.70 180.71   A 6.15 5.90 57.8 0 0 256.10 178.77   Q 256.22 175.07 256.13 174.74   Q 254.71 169.99 249.69 169.61   C 245.75 169.31 241.81 171.70 238.47 173.46   Q 234.84 174.52 231.62 174.04   A 0.63 0.62 12.3 0 1 231.11 173.26   Q 233.86 163.61 243.20 160.24   C 248.52 158.32 252.24 158.79 256.77 161.59   C 260.70 164.02 263.01 164.63 267.77 164.40   A 1.72 1.67 -31.4 0 1 268.70 164.61   C 271.89 166.37 273.58 169.37 273.65 173.23   C 273.73 177.16 274.08 181.64 272.40 185.16   A 4.43 4.21 62.9 0 0 272.02 186.45   Q 271.00 194.40 270.13 204.55   Q 269.87 207.68 270.11 210.00   Z"
     id="path212" />
  <path
     fill="#3e5d9a"
     d="   M 320.90 176.94   Q 319.21 179.59 318.52 182.81   Q 318.93 179.37 319.82 176.05   Q 320.34 174.08 320.65 167.71   Q 320.95 164.64 319.58 161.98   A 1.97 1.95 5.2 0 0 318.99 161.28   C 316.02 159.13 310.95 160.01 308.32 161.81   Q 306.35 164.99 306.24 166.87   Q 305.79 174.54 303.28 181.75   A 9.94 9.90 58.3 0 0 302.81 183.76   C 302.51 186.04 302.51 187.69 301.71 189.60   C 300.62 192.20 299.63 197.09 297.77 201.09   Q 293.49 210.24 289.04 217.80   A 2.35 1.38 -60.2 0 1 288.85 218.07   L 282.91 225.54   A 0.62 0.62 0.0 0 0 283.12 226.48   C 286.15 227.99 289.41 229.26 291.68 227.13   Q 298.16 221.03 306.07 217.16   Q 308.99 215.74 315.36 209.20   Q 315.62 215.51 313.26 220.81   A 1.44 1.44 0.0 0 0 313.28 222.02   C 315.42 226.42 319.82 232.82 324.64 234.52   Q 328.09 235.74 328.65 235.91   A 1.82 1.81 36.4 0 1 329.14 239.14   Q 325.06 241.93 320.43 241.98   C 316.83 242.02 308.82 238.76 306.78 235.99   Q 302.96 230.79 300.20 224.23   Q 300.22 223.68 300.01 223.49   Q 299.73 223.25 299.37 223.68   Q 299.07 224.05 298.84 224.51   Q 298.80 224.20 298.70 224.17   Q 298.26 224.02 298.03 224.44   Q 294.69 230.47 289.53 235.45   A 1.02 1.01 -61.6 0 1 288.63 235.72   Q 275.17 233.24 262.04 235.94   A 0.80 0.80 0.0 0 1 261.20 235.57   Q 258.38 230.75 257.45 227.86   Q 255.20 220.88 254.71 219.58   A 1.82 1.81 -30.2 0 0 251.87 218.83   C 250.82 219.68 248.96 222.12 247.98 224.03   Q 245.87 228.11 241.87 233.53   Q 240.67 235.16 239.78 237.76   Q 234.10 243.51 226.36 243.95   L 226.09 243.78   A 0.34 0.34 0.0 0 1 226.05 243.24   L 226.57 242.78   Q 228.98 243.01 231.33 241.81   Q 233.60 241.52 235.75 239.32   A 0.87 0.87 0.0 0 0 235.64 238.01   C 233.39 236.36 232.13 235.66 232.12 232.93   A 1.78 1.74 -60.7 0 0 231.88 232.04   Q 229.38 227.77 226.09 227.66   Q 233.23 222.45 238.13 214.88   Q 240.88 210.62 245.97 201.44   C 249.54 195.00 251.78 187.51 254.15 181.74   C 257.54 173.49 251.33 168.14 243.36 171.85   Q 239.72 173.54 236.93 176.68   C 231.05 183.28 227.53 192.17 224.86 200.11   Q 222.11 208.31 222.18 218.50   Q 222.20 221.33 222.51 224.39   Q 220.98 221.93 220.69 217.82   Q 221.37 206.08 223.39 197.71   Q 225.02 190.99 230.29 182.53   Q 230.65 181.95 231.64 181.08   A 5.96 5.92 -4.7 0 0 232.75 179.78   Q 234.98 176.23 238.47 173.46   C 241.81 171.70 245.75 169.31 249.69 169.61   Q 254.71 169.99 256.13 174.74   Q 256.22 175.07 256.10 178.77   A 6.15 5.90 57.8 0 1 255.70 180.71   C 253.91 185.29 252.89 190.36 250.73 195.25   Q 247.82 201.80 247.79 201.89   A 1.55 1.55 0.0 0 0 248.05 203.37   Q 249.77 205.53 251.81 207.34   C 254.78 209.98 256.58 212.41 258.73 215.27   C 261.63 219.14 264.53 221.21 269.08 221.05   A 1.45 1.45 0.0 0 0 270.48 219.55   L 270.11 210.00   Q 271.11 210.14 270.87 213.56   Q 271.42 219.40 272.89 225.07   Q 273.42 227.13 275.36 228.59   A 1.12 1.11 -40.6 0 0 276.56 228.68   C 281.10 226.20 285.37 220.70 287.90 216.64   C 292.83 208.75 297.99 200.14 299.78 190.71   C 301.72 180.49 302.85 172.95 304.12 166.82   C 305.37 160.76 310.42 157.71 316.37 158.89   Q 321.56 159.92 321.91 165.32   Q 322.31 171.58 320.90 176.94   Z"
     id="path213" />
  <path
     fill="#728fbc"
     d="   M 320.65 167.71   L 319.56 174.28   A 0.60 0.60 0.0 0 1 318.96 174.77   C 312.61 174.55 309.06 167.09 308.32 161.81   C 310.95 160.01 316.02 159.13 318.99 161.28   A 1.97 1.95 5.2 0 1 319.58 161.98   Q 320.95 164.64 320.65 167.71   Z"
     id="path214" />
  <path
     fill="#bbcde2"
     d="   M 513.92 174.46   Q 512.20 176.11 511.46 178.58   A 0.68 0.66 7.7 0 1 510.83 179.05   C 505.66 179.12 500.88 178.40 496.95 175.16   A 1.14 1.12 20.7 0 1 496.54 174.27   L 496.62 167.01   Q 498.06 162.04 502.65 160.91   C 508.38 159.49 513.43 162.56 514.27 168.55   C 514.53 170.36 513.96 172.45 513.92 174.46   Z"
     id="path215" />
  <path
     fill="#5777ae"
     d="   M 308.32 161.81   C 309.06 167.09 312.61 174.55 318.96 174.77   A 0.60 0.60 0.0 0 0 319.56 174.28   L 320.65 167.71   Q 320.34 174.08 319.82 176.05   Q 318.93 179.37 318.52 182.81   Q 315.85 195.83 315.36 209.20   Q 308.99 215.74 306.07 217.16   Q 298.16 221.03 291.68 227.13   C 289.41 229.26 286.15 227.99 283.12 226.48   A 0.62 0.62 0.0 0 1 282.91 225.54   L 288.85 218.07   A 2.35 1.38 -60.2 0 0 289.04 217.80   Q 293.49 210.24 297.77 201.09   C 299.63 197.09 300.62 192.20 301.71 189.60   C 302.51 187.69 302.51 186.04 302.81 183.76   A 9.94 9.90 58.3 0 1 303.28 181.75   Q 305.79 174.54 306.24 166.87   Q 306.35 164.99 308.32 161.81   Z"
     id="path216" />
  <path
     fill="#90abcd"
     d="   M 513.92 174.46   Q 511.59 191.85 509.21 209.02   C 508.52 214.05 508.55 225.07 512.64 228.58   C 515.10 230.69 520.58 226.46 522.07 224.83   Q 525.09 221.52 527.95 217.97   Q 527.80 218.45 527.94 218.64   A 0.53 0.53 0.0 0 0 528.79 218.66   Q 532.03 214.55 534.37 208.96   A 1.27 1.26 -76.7 0 1 535.62 208.18   C 542.99 208.70 549.52 217.05 552.07 223.19   L 552.29 224.52   L 553.52 227.24   A 1.37 1.33 89.7 0 0 554.19 227.92   C 559.09 230.06 560.08 237.26 559.90 241.87   A 0.66 0.64 -6.1 0 1 559.40 242.47   L 551.02 244.49   Q 540.79 242.16 536.44 232.55   A 0.80 0.79 52.5 0 0 535.10 232.37   C 525.94 243.70 509.34 250.23 498.87 236.16   Q 494.77 230.66 493.77 224.29   A 0.92 0.92 0.0 0 0 492.07 223.97   L 490.31 226.97   L 490.55 225.59   A 0.67 0.66 62.2 0 0 489.29 225.20   Q 485.15 234.29 477.56 240.62   Q 464.11 251.86 448.57 243.58   A 0.43 0.43 0.0 0 1 448.44 242.92   Q 453.20 237.16 459.89 233.61   A 2.99 2.87 25.1 0 1 460.74 233.32   C 466.55 232.29 469.72 230.05 473.55 226.49   C 476.96 223.32 480.18 218.56 483.26 214.49   Q 487.29 209.14 488.29 202.77   Q 494.66 188.16 495.24 171.75   Q 495.29 170.43 496.62 167.01   L 496.54 174.27   A 1.14 1.12 20.7 0 0 496.95 175.16   C 500.88 178.40 505.66 179.12 510.83 179.05   A 0.68 0.66 7.7 0 0 511.46 178.58   Q 512.20 176.11 513.92 174.46   Z"
     id="path217" />
  <path
     fill="#4f6ea3"
     d="   M 132.75 194.35   Q 127.62 208.46 120.90 221.80   Q 118.48 226.61 113.28 227.25   Q 110.11 227.64 107.23 226.88   L 103.02 222.52   C 105.72 223.89 106.97 226.24 110.32 226.00   Q 112.02 225.88 114.55 225.80   A 2.40 2.32 31.3 0 0 115.48 225.59   C 118.42 224.29 120.52 220.34 121.80 217.44   Q 126.96 205.72 130.02 199.00   Q 131.73 195.25 131.84 189.74   A 0.98 0.96 -75.3 0 0 131.34 188.87   Q 126.03 185.86 119.82 187.42   Q 111.79 189.43 104.61 193.74   Q 102.43 195.05 102.15 197.93   Q 100.89 210.78 102.97 222.18   C 100.58 216.68 99.95 211.78 99.82 204.23   Q 99.59 190.46 100.96 176.17   A 0.50 0.50 0.0 0 1 101.56 175.73   Q 110.82 177.78 118.56 181.32   Q 118.85 181.45 119.09 181.76   A 0.64 0.63 -21.6 0 0 119.64 181.99   Q 127.69 181.29 135.68 182.68   A 0.40 0.40 0.0 0 1 135.98 183.24   Q 133.59 188.64 132.75 194.35   Z"
     id="path221" />
  <path
     fill="#5777ae"
     d="   M 49.88 185.50   Q 50.03 186.62 50.78 186.48   C 53.12 188.51 56.96 190.89 58.47 192.83   Q 61.76 197.08 61.74 203.19   Q 61.73 204.33 59.46 211.30   Q 57.11 218.51 56.88 219.34   Q 53.72 230.60 50.07 240.86   A 1.10 1.09 -89.3 0 1 49.40 241.52   Q 48.75 241.74 48.09 241.46   A 1.16 1.11 74.7 0 0 47.02 243.43   Q 47.64 243.94 47.94 244.00   A 1.50 1.49 15.4 0 1 49.06 245.96   Q 47.27 251.08 48.57 254.85   Q 48.12 259.55 44.88 262.29   C 39.77 266.62 32.45 265.45 28.71 259.80   A 4.22 4.20 -65.3 0 1 28.04 257.98   Q 27.36 252.35 27.36 251.76   Q 27.38 244.30 27.65 238.19   C 27.90 232.33 27.81 221.04 28.90 212.45   Q 28.85 213.63 29.29 214.12   A 0.35 0.34 -62.3 0 0 29.89 213.93   Q 30.89 205.92 31.44 199.49   C 31.71 196.33 32.33 194.73 33.43 191.73   Q 34.16 189.76 33.76 187.88   Q 32.88 183.70 33.30 179.28   A 0.55 0.54 4.3 0 1 33.88 178.79   Q 41.36 179.29 47.57 183.86   A 1.76 1.69 8.2 0 1 48.14 184.59   Q 49.44 187.72 49.88 185.50   Z   M 34.31 207.37   Q 31.23 210.66 30.92 215.27   Q 29.61 234.70 28.96 253.24   Q 28.88 255.46 30.00 259.65   A 1.15 1.13 -78.9 0 0 30.39 260.24   L 34.15 263.24   A 1.55 1.55 0.0 0 0 35.24 263.57   L 38.95 263.27   A 3.68 3.66 -77.0 0 0 41.83 261.46   C 46.24 253.87 47.22 249.71 41.41 242.41   A 0.69 0.69 0.0 0 1 41.69 241.34   Q 51.86 237.24 49.71 226.39   Q 48.08 218.17 42.99 214.43   C 39.71 212.02 37.60 209.90 35.50 207.40   A 0.79 0.79 0.0 0 0 34.31 207.37   Z"
     id="path222" />
  <path
     fill="#4f6ea3"
     d="   M 605.68 181.58   C 603.80 192.88 601.33 203.89 602.24 215.25   C 602.62 219.93 603.53 225.69 607.05 228.77   A 1.11 1.09 -39.2 0 0 608.33 228.89   Q 611.19 227.21 613.10 224.83   Q 617.67 219.15 621.32 212.74   Q 620.29 217.34 617.74 221.31   A 0.31 0.30 17.3 0 0 617.99 221.78   C 620.99 221.90 622.26 220.25 624.55 217.97   C 627.50 215.00 631.75 213.50 635.81 212.85   Q 631.79 221.92 625.57 230.84   C 622.75 234.88 619.08 239.59 614.98 241.82   Q 608.46 245.36 601.23 244.04   C 590.40 242.05 585.45 228.34 585.00 218.74   L 585.07 218.26   A 0.59 0.58 12.0 0 0 584.65 217.62   C 579.47 216.13 575.13 216.85 570.39 216.40   A 0.22 0.22 0.0 0 1 570.29 216.00   L 574.04 213.28   C 583.02 205.15 588.93 195.72 584.38 183.24   L 585.08 179.74   Q 589.21 182.94 593.99 182.90   Q 599.02 182.86 605.68 181.58   Z"
     id="path223" />
  <path
     fill="#3e5d9a"
     d="   M 584.38 183.24   C 588.93 195.72 583.02 205.15 574.04 213.28   Q 577.98 207.74 581.91 202.17   Q 584.95 197.86 585.70 188.86   A 0.17 0.17 0.0 0 0 585.54 188.68   L 585.53 188.68   A 0.18 0.18 0.0 0 0 585.33 188.84   C 584.22 197.91 580.27 203.02 575.70 209.73   C 579.53 201.53 585.26 195.42 583.62 185.55   L 584.38 183.24   Z"
     id="path224" />
  <path
     fill="#304a83"
     d="   M 583.62 185.55   C 585.26 195.42 579.53 201.53 575.70 209.73   Q 575.00 210.58 574.36 210.75   A 0.56 0.56 0.0 0 1 573.67 210.34   Q 573.43 209.26 573.65 207.94   Q 579.63 197.36 583.62 185.55   Z"
     id="path225" />
  <path
     fill="#728fbc"
     d="   M 103.02 222.52   Q 103.00 222.35 102.97 222.18   Q 100.89 210.78 102.15 197.93   Q 102.43 195.05 104.61 193.74   Q 111.79 189.43 119.82 187.42   Q 126.03 185.86 131.34 188.87   A 0.98 0.96 -75.3 0 1 131.84 189.74   Q 131.73 195.25 130.02 199.00   Q 126.96 205.72 121.80 217.44   C 120.52 220.34 118.42 224.29 115.48 225.59   A 2.40 2.32 31.3 0 1 114.55 225.80   Q 112.02 225.88 110.32 226.00   C 106.97 226.24 105.72 223.89 103.02 222.52   Z"
     id="path226" />
  <path
     fill="#5777ae"
     d="   M 574.04 213.28   L 570.29 216.00   A 0.22 0.22 0.0 0 0 570.39 216.40   C 575.13 216.85 579.47 216.13 584.65 217.62   A 0.59 0.58 12.0 0 1 585.07 218.26   L 585.00 218.74   Q 585.14 218.48 584.72 218.31   A 0.49 0.48 24.3 0 0 584.10 218.54   C 579.96 226.53 575.70 233.40 569.18 239.34   C 564.10 243.97 557.71 245.61 551.02 244.49   L 559.40 242.47   A 0.66 0.64 -6.1 0 0 559.90 241.87   C 560.08 237.26 559.09 230.06 554.19 227.92   A 1.37 1.33 89.7 0 1 553.52 227.24   L 552.29 224.52   Q 553.05 224.48 553.03 223.21   C 554.03 225.84 554.81 230.05 558.95 227.73   Q 560.51 226.85 564.07 222.30   Q 569.35 215.54 573.65 207.94   Q 573.43 209.26 573.67 210.34   A 0.56 0.56 0.0 0 0 574.36 210.75   Q 575.00 210.58 575.70 209.73   C 580.27 203.02 584.22 197.91 585.33 188.84   A 0.18 0.18 0.0 0 1 585.53 188.68   L 585.54 188.68   A 0.17 0.17 0.0 0 1 585.70 188.86   Q 584.95 197.86 581.91 202.17   Q 577.98 207.74 574.04 213.28   Z"
     id="path227" />
  <path
     fill="#728fbc"
     d="   M 635.81 212.85   C 631.75 213.50 627.50 215.00 624.55 217.97   C 622.26 220.25 620.99 221.90 617.99 221.78   A 0.31 0.30 17.3 0 1 617.74 221.31   Q 620.29 217.34 621.32 212.74   Q 626.80 203.02 631.35 192.77   Q 633.92 187.00 639.19 190.10   Q 641.46 191.42 641.85 194.38   A 2.49 2.48 48.3 0 1 641.80 195.29   Q 639.65 204.26 635.81 212.85   Z   M 640.4357 195.0203   A 2.12 2.12 0.0 0 0 639.8277 192.0844   L 637.0696 190.2727   A 2.12 2.12 0.0 0 0 634.1337 190.8807   L 632.1243 193.9397   A 2.12 2.12 0.0 0 0 632.7323 196.8756   L 635.4904 198.6873   A 2.12 2.12 0.0 0 0 638.4263 198.0793   L 640.4357 195.0203   Z"
     id="path228" />
  <rect
     fill="#bbcde2"
     x="-3.77"
     y="-3.95"
     transform="translate(636.28,194.48) rotate(33.3)"
     width="7.54"
     height="7.90"
     rx="2.12"
     id="rect228" />
  <path
     fill="#5777ae"
     d="   M 552.07 223.19   C 549.52 217.05 542.99 208.70 535.62 208.18   A 1.27 1.26 -76.7 0 0 534.37 208.96   Q 532.03 214.55 528.79 218.66   A 0.53 0.53 0.0 0 1 527.94 218.64   Q 527.80 218.45 527.95 217.97   Q 532.73 211.48 534.67 205.43   Q 536.05 201.11 537.08 199.38   Q 539.80 195.81 541.11 191.29   A 0.44 0.44 0.0 0 1 541.70 191.01   C 547.42 193.45 546.35 197.56 547.23 202.72   A 8.94 8.87 -63.6 0 0 548.10 205.34   L 551.38 211.73   A 1.83 1.77 31.5 0 1 551.58 212.51   L 552.07 223.19   Z"
     id="path229" />
  <path
     fill="#728fbc"
     d="   M 432.11 213.77   L 431.95 213.21   A 0.44 0.44 0.0 0 0 431.21 213.03   L 428.87 215.53   Q 425.42 217.34 423.46 219.48   Q 418.30 225.08 412.99 230.54   A 0.29 0.29 0.0 0 1 412.50 230.42   Q 410.38 222.93 410.08 215.42   L 416.97 208.48   C 423.05 206.05 425.39 199.44 431.55 196.71   A 1.38 1.37 75.1 0 1 433.48 197.83   Q 434.29 206.33 432.11 213.77   Z"
     id="path230" />
  <path
     fill="#4f6ea3"
     d="   M 344.38 207.72   C 345.41 203.80 348.72 202.11 352.05 200.56   A 1.16 1.14 44.0 0 1 353.00 200.55   C 360.08 203.64 358.26 211.63 358.00 218.99   Q 357.75 225.93 360.96 232.96   Q 362.41 236.13 360.40 241.02   A 0.73 0.73 0.0 0 1 359.71 241.47   Q 348.93 241.25 343.93 230.59   A 1.73 1.73 0.0 0 1 344.75 228.30   L 348.00 226.73   A 0.89 0.88 86.8 0 0 348.45 226.22   L 349.14 224.15   A 1.04 1.04 0.0 0 1 349.68 223.54   L 351.86 222.49   A 0.82 0.80 -13.9 0 0 352.32 221.75   Q 352.30 215.52 350.26 210.54   A 1.05 1.02 87.8 0 0 349.63 209.94   L 344.69 208.29   A 0.48 0.48 0.0 0 1 344.38 207.72   Z"
     id="path231" />
  <path
     fill="#728fbc"
     d="   M 490.31 226.97   Q 486.13 234.95 479.59 240.77   Q 472.73 246.88 465.97 248.43   Q 458.21 250.22 450.62 246.42   Q 443.26 242.73 438.66 234.56   Q 439.39 229.37 445.08 227.98   Q 451.78 226.34 457.01 229.23   C 461.25 234.63 466.38 231.50 470.34 227.50   Q 481.04 216.69 488.29 202.77   Q 487.29 209.14 483.26 214.49   C 480.18 218.56 476.96 223.32 473.55 226.49   C 469.72 230.05 466.55 232.29 460.74 233.32   A 2.99 2.87 25.1 0 0 459.89 233.61   Q 453.20 237.16 448.44 242.92   A 0.43 0.43 0.0 0 0 448.57 243.58   Q 464.11 251.86 477.56 240.62   Q 485.15 234.29 489.29 225.20   A 0.67 0.66 62.2 0 1 490.55 225.59   L 490.31 226.97   Z"
     id="path232" />
  <path
     fill="#90abcd"
     d="   M 34.31 207.37   A 0.79 0.79 0.0 0 1 35.50 207.40   C 37.60 209.90 39.71 212.02 42.99 214.43   Q 48.08 218.17 49.71 226.39   Q 51.86 237.24 41.69 241.34   A 0.69 0.69 0.0 0 0 41.41 242.41   C 47.22 249.71 46.24 253.87 41.83 261.46   A 3.68 3.66 -77.0 0 1 38.95 263.27   L 35.24 263.57   A 1.55 1.55 0.0 0 1 34.15 263.24   L 30.39 260.24   A 1.15 1.13 -78.9 0 1 30.00 259.65   Q 28.88 255.46 28.96 253.24   Q 29.61 234.70 30.92 215.27   Q 31.23 210.66 34.31 207.37   Z"
     id="path233" />
  <path
     fill="#728fbc"
     d="   M 220.69 217.82   Q 220.98 221.93 222.51 224.39   Q 223.16 227.50 226.09 227.66   Q 229.38 227.77 231.88 232.04   A 1.78 1.74 -60.7 0 1 232.12 232.93   C 232.13 235.66 233.39 236.36 235.64 238.01   A 0.87 0.87 0.0 0 1 235.75 239.32   Q 233.60 241.52 231.33 241.81   C 234.08 234.64 221.19 231.33 218.87 225.82   Q 215.26 217.24 207.01 212.41   A 1.32 1.31 17.2 0 0 205.03 213.45   C 204.49 221.28 204.95 229.50 208.82 236.18   C 213.02 243.42 219.35 242.79 226.57 242.78   L 226.05 243.24   A 0.34 0.34 0.0 0 0 226.09 243.78   L 226.36 243.95   C 218.37 244.31 211.06 242.96 207.21 235.05   Q 205.20 230.92 204.47 227.25   Q 203.33 221.63 203.96 211.72   Q 206.95 210.09 208.40 210.66   Q 212.35 212.20 216.12 213.84   Q 219.37 215.25 220.69 217.82   Z"
     id="path234" />
  <path
     fill="#90abcd"
     d="   M 231.33 241.81   Q 228.98 243.01 226.57 242.78   C 219.35 242.79 213.02 243.42 208.82 236.18   C 204.95 229.50 204.49 221.28 205.03 213.45   A 1.32 1.31 17.2 0 1 207.01 212.41   Q 215.26 217.24 218.87 225.82   C 221.19 231.33 234.08 234.64 231.33 241.81   Z"
     id="path235" />
  <path
     fill="#304a83"
     d="   M 298.84 224.51   C 294.25 233.26 286.40 243.53 275.75 244.18   C 261.84 245.03 255.04 231.35 253.67 219.62   A 0.40 0.40 0.0 0 0 252.93 219.47   C 249.15 226.15 245.31 232.34 239.78 237.76   Q 240.67 235.16 241.87 233.53   Q 245.87 228.11 247.98 224.03   C 248.96 222.12 250.82 219.68 251.87 218.83   A 1.82 1.81 -30.2 0 1 254.71 219.58   Q 255.20 220.88 257.45 227.86   Q 258.38 230.75 261.20 235.57   A 0.80 0.80 0.0 0 0 262.04 235.94   Q 275.17 233.24 288.63 235.72   A 1.02 1.01 -61.6 0 0 289.53 235.45   Q 294.69 230.47 298.03 224.44   Q 298.26 224.02 298.70 224.17   Q 298.80 224.20 298.84 224.51   Z"
     id="path236" />
  <path
     fill="#90abcd"
     d="   M 189.86 247.71   Q 191.45 256.31 193.23 259.49   Q 193.86 260.63 199.15 265.67   A 2.21 2.17 -79.7 0 1 199.68 266.45   Q 201.18 270.07 198.72 271.66   Q 195.05 274.03 190.24 273.99   A 3.12 2.98 53.9 0 1 189.30 273.82   Q 180.62 270.70 175.54 263.31   C 174.23 258.85 172.43 254.33 171.56 250.14   Q 169.30 239.33 169.50 229.13   A 0.93 0.92 -2.1 0 1 170.35 228.22   L 179.44 227.49   A 0.98 0.94 -67.6 0 0 180.05 227.22   C 181.47 225.87 183.24 224.37 185.18 225.20   A 0.96 0.93 -82.5 0 1 185.74 225.95   C 186.70 233.12 186.68 241.14 189.86 247.71   Z   M 198.99 269.87   Q 199.18 267.22 198.43 266.47   C 194.59 262.57 192.53 260.74 190.92 256.43   A 1.74 1.72 -81.1 0 0 190.35 255.64   Q 187.22 253.15 184.37 252.29   C 180.75 251.20 177.34 253.15 176.98 257.03   C 176.25 265.05 186.38 270.05 192.82 271.95   Q 195.33 272.69 198.43 270.80   A 1.18 1.18 0.0 0 0 198.99 269.87   Z"
     id="path237" />
  <path
     fill="#304a83"
     d="   M 386.48 258.20   C 377.60 267.09 368.44 276.72 362.41 287.91   Q 358.82 294.58 357.49 302.56   Q 358.20 291.78 349.27 286.65   A 0.43 0.43 0.0 0 0 348.65 286.87   C 346.87 291.67 345.46 296.56 342.44 300.80   Q 346.08 285.03 356.09 272.60   Q 371.11 253.94 389.61 238.67   A 4.11 4.08 -18.9 0 0 391.09 235.68   L 391.28 230.90   Q 393.48 234.55 391.69 239.18   A 2.25 2.19 78.8 0 1 391.19 239.95   Q 385.06 246.21 380.12 254.22   Q 377.91 257.78 380.79 260.26   A 0.80 0.79 -37.0 0 0 381.65 260.38   L 386.48 258.20   Z"
     id="path238" />
  <path
     fill="#bbcde2"
     d="   M 198.43 270.80   Q 195.33 272.69 192.82 271.95   C 186.38 270.05 176.25 265.05 176.98 257.03   C 177.34 253.15 180.75 251.20 184.37 252.29   Q 187.22 253.15 190.35 255.64   A 1.74 1.72 -81.1 0 1 190.92 256.43   C 192.53 260.74 194.59 262.57 198.43 266.47   Q 199.18 267.22 198.99 269.87   A 1.18 1.18 0.0 0 1 198.43 270.80   Z"
     id="path239" />
  <path
     fill="#728fbc"
     d="   M 398.80 286.20   A 1.03 1.03 0.0 0 1 397.08 286.12   C 393.23 279.53 388.97 273.03 389.30 264.62   A 1.12 1.10 -16.4 0 1 389.79 263.74   Q 395.28 260.02 398.44 258.12   Q 402.32 255.79 405.09 257.88   A 0.95 0.94 21.6 0 1 405.46 258.72   Q 404.34 270.01 402.09 279.12   C 401.45 281.70 400.25 284.16 398.80 286.20   Z"
     id="path240" />
  <path
     fill="#7e9dc9"
     d="   M 380.78 327.34   Q 373.91 334.04 365.31 334.36   Q 349.22 334.95 343.48 319.32   L 343.04 306.40   A 0.90 0.90 0.0 0 1 344.67 305.85   L 350.04 313.33   A 1.85 1.79 -5.5 0 0 350.79 313.93   C 356.87 316.58 360.37 318.25 365.80 318.30   C 368.17 318.31 372.97 316.91 376.08 317.58   Q 380.26 318.49 383.02 322.15   A 0.73 0.72 -49.5 0 1 383.08 322.93   L 380.78 327.34   Z"
     id="path242" />
</svg>
