<?xml version="1.0" encoding="UTF-8" standalone="no"?>
<svg
   version="1.1"
   viewBox="0.00 0.00 1969.00 1065.00"
   id="svg21"
   sodipodi:docname="maiglia.svg"
   inkscape:version="1.4.2 (ebf0e940d0, 2025-05-08)"
   xmlns:inkscape="http://www.inkscape.org/namespaces/inkscape"
   xmlns:sodipodi="http://sodipodi.sourceforge.net/DTD/sodipodi-0.dtd"
   xmlns="http://www.w3.org/2000/svg"
   xmlns:svg="http://www.w3.org/2000/svg">
  <defs
     id="defs21" />
  <sodipodi:namedview
     id="namedview21"
     pagecolor="#ffffff"
     bordercolor="#000000"
     borderopacity="0.25"
     inkscape:showpageshadow="2"
     inkscape:pageopacity="0.0"
     inkscape:pagecheckerboard="0"
     inkscape:deskcolor="#d1d1d1"
     inkscape:zoom="0.85326852"
     inkscape:cx="1512.4196"
     inkscape:cy="566.6446"
     inkscape:window-width="1512"
     inkscape:window-height="814"
     inkscape:window-x="0"
     inkscape:window-y="0"
     inkscape:window-maximized="1"
     inkscape:current-layer="svg21" />
  <g
     stroke-width="2.00"
     fill="none"
     stroke-linecap="butt"
     id="g10">
    <path
       stroke="#8f9ba9"
       vector-effect="non-scaling-stroke"
       d="   M 1707.57 177.99   C 1704.57 185.07 1700.66 191.51 1697.69 197.29   Q 1689.34 213.51 1685.20 219.70   Q 1672.86 238.15 1669.60 242.89   Q 1669.57 242.93 1664.71 249.69   C 1644.49 277.81 1625.99 301.46 1604.13 324.14   C 1585.54 343.43 1565.69 362.07 1544.79 378.02   Q 1526.12 392.26 1515.59 399.33   Q 1506.15 405.66 1476.17 421.42   C 1471.72 423.76 1466.89 426.67 1465.19 431.68   C 1461.65 442.15 1465.64 453.42 1475.15 458.97   C 1480.87 462.31 1490.79 462.70 1496.62 460.33   Q 1502.18 458.07 1511.40 452.65   Q 1525.67 444.27 1535.20 438.19   Q 1545.21 431.80 1572.49 411.47   Q 1578.28 407.16 1596.00 391.99   Q 1631.93 361.21 1661.97 324.22   Q 1673.18 310.41 1684.42 295.94   Q 1690.28 288.40 1696.20 279.79   C 1702.99 269.90 1711.09 258.59 1718.00 247.83   Q 1726.26 234.98 1728.08 232.10   Q 1733.87 222.91 1743.62 204.13   Q 1744.90 201.67 1745.82 200.36   A 0.57 0.57 0.0 0 1 1746.85 200.67   Q 1747.13 208.60 1747.62 212.51   C 1748.79 221.90 1748.74 225.09 1749.43 233.94   C 1750.16 243.27 1751.41 252.18 1752.23 261.50   C 1753.00 270.27 1755.70 281.07 1762.94 286.14   Q 1768.65 290.14 1775.90 290.49   C 1783.00 290.83 1788.46 287.80 1792.34 281.91   C 1794.89 278.03 1795.22 271.09 1794.89 267.01   Q 1793.31 247.08 1791.32 230.30   C 1789.84 217.78 1789.72 202.75 1788.30 191.98   C 1787.13 183.00 1787.14 172.47 1785.78 164.01   Q 1784.93 158.71 1783.92 145.05   Q 1783.21 135.57 1781.23 125.26   C 1780.26 120.23 1778.61 113.19 1774.41 110.11   C 1766.95 104.67 1759.55 105.19 1751.55 109.27   Q 1727.81 121.39 1708.02 130.60   Q 1680.86 143.24 1673.02 147.11   Q 1653.42 156.79 1638.16 163.87   Q 1630.35 167.49 1625.99 169.52   Q 1620.45 172.10 1617.05 176.79   C 1613.11 182.23 1612.10 189.72 1614.61 195.66   C 1620.57 209.81 1638.32 209.99 1650.43 204.16   C 1659.55 199.77 1668.07 195.24 1676.77 191.27   Q 1688.07 186.10 1699.72 180.73   Q 1706.32 177.69 1707.17 177.50   A 0.36 0.36 0.0 0 1 1707.57 177.99"
       id="path1" />
    <path
       stroke="#8f9ba9"
       vector-effect="non-scaling-stroke"
       d="   M 993.08 425.60   Q 1012.21 427.57 1031.98 425.10   C 1041.81 423.88 1050.07 423.21 1059.34 421.22   C 1073.99 418.09 1086.76 414.99 1099.50 409.83   Q 1109.50 405.77 1111.48 404.75   Q 1132.02 394.10 1145.55 383.55   Q 1172.25 362.74 1189.52 332.82   Q 1202.06 311.09 1209.13 290.70   Q 1215.28 272.99 1219.97 248.55   Q 1222.78 233.92 1223.56 219.51   C 1224.31 205.80 1225.21 188.98 1224.17 173.32   Q 1223.27 159.76 1222.74 156.50   Q 1220.34 141.80 1218.14 135.59   C 1215.47 128.08 1210.05 121.80 1201.32 124.82   C 1198.66 125.74 1195.19 127.28 1191.84 129.12   Q 1174.02 138.89 1170.13 140.61   Q 1148.23 150.27 1129.83 155.01   Q 1095.66 163.82 1085.68 166.93   Q 1073.91 170.59 1069.53 172.33   C 1059.57 176.29 1051.10 179.35 1043.33 182.89   Q 1025.81 190.86 1008.97 201.91   C 999.48 208.13 990.27 216.13 982.99 223.74   Q 961.77 245.91 952.29 275.78   C 950.48 281.46 948.28 288.33 947.54 294.02   C 946.83 299.51 945.21 306.45 944.87 312.70   Q 943.17 343.49 948.61 368.71   Q 951.00 379.84 958.20 396.89   C 959.23 399.32 960.88 401.52 961.79 404.06   A 2.28 2.27 43.6 0 1 961.83 405.47   Q 961.09 408.00 960.64 409.14   Q 950.11 436.33 944.62 449.62   C 940.27 460.15 940.05 470.22 952.02 475.07   C 959.55 478.12 966.26 478.66 973.38 474.10   Q 976.71 471.96 977.98 467.95   C 980.26 460.74 981.98 454.09 984.83 446.93   Q 987.55 440.09 989.72 432.99   Q 991.11 428.44 992.33 426.01   A 0.74 0.74 0.0 0 1 993.08 425.60"
       id="path2" />
    <path
       stroke="#8f9ba9"
       vector-effect="non-scaling-stroke"
       d="   M 788.70 664.87   Q 790.06 676.95 790.07 677.12   C 791.38 691.64 795.58 704.69 803.24 717.24   Q 811.99 731.55 826.25 738.06   Q 836.81 742.87 846.75 742.27   Q 857.16 741.64 866.97 736.69   Q 879.40 730.42 890.30 717.82   Q 902.03 704.27 908.95 691.71   Q 911.67 686.77 913.71 681.40   A 0.43 0.43 0.0 0 1 914.54 681.49   Q 916.70 696.19 923.30 710.10   C 928.49 721.03 935.27 728.71 944.95 735.30   C 954.90 742.08 966.89 743.72 978.52 741.60   C 993.13 738.94 1008.17 728.36 1018.59 717.94   C 1022.87 713.67 1026.20 709.12 1030.62 703.64   A 0.35 0.35 0.0 0 1 1031.22 703.76   C 1037.69 724.36 1054.50 739.51 1076.33 741.78   C 1087.47 742.93 1099.53 738.06 1108.35 731.84   Q 1125.22 719.92 1138.93 703.87   Q 1146.50 695.02 1153.56 682.46   Q 1160.64 669.87 1165.80 659.47   A 0.17 0.17 0.0 0 1 1166.12 659.56   Q 1165.04 683.28 1164.03 697.25   Q 1163.46 705.21 1163.75 716.51   Q 1163.88 721.74 1159.67 725.66   Q 1128.42 754.79 1100.86 783.11   Q 1087.79 796.53 1074.44 812.21   Q 1047.73 843.59 1034.92 882.79   C 1031.84 892.22 1029.43 903.17 1028.50 912.02   C 1026.10 934.79 1034.79 962.76 1053.52 976.52   Q 1059.73 981.08 1063.06 982.73   C 1072.10 987.22 1083.24 989.16 1093.28 988.24   Q 1110.79 986.64 1125.86 977.30   C 1135.80 971.13 1144.37 961.61 1151.17 951.41   Q 1163.43 932.99 1171.70 912.67   Q 1178.16 896.78 1182.62 882.65   Q 1183.15 880.99 1186.25 870.56   C 1188.48 863.08 1190.63 853.38 1192.11 847.09   C 1194.22 838.04 1196.00 828.12 1197.32 821.97   C 1199.25 812.98 1199.92 804.25 1201.65 794.64   C 1202.42 790.33 1202.66 782.60 1203.55 777.47   C 1205.06 768.87 1205.53 758.25 1206.83 748.78   Q 1208.20 738.77 1209.82 722.74   A 5.29 5.29 0.0 0 1 1211.53 719.34   Q 1223.45 708.48 1231.51 700.52   Q 1237.17 694.92 1269.36 659.78   C 1271.50 657.44 1273.22 654.82 1274.94 651.91   A 0.46 0.46 0.0 0 1 1275.79 652.17   L 1275.67 655.00   A 4.68 4.59 40.8 0 0 1275.77 656.21   Q 1279.45 673.30 1280.53 677.50   Q 1285.15 695.44 1293.03 711.89   Q 1303.19 733.13 1321.71 745.93   C 1332.38 753.30 1346.90 758.06 1360.22 755.41   Q 1386.31 750.21 1405.70 730.73   C 1411.89 724.52 1416.47 718.32 1424.00 707.88   Q 1426.75 704.07 1429.82 699.00   C 1433.30 693.24 1436.97 688.29 1439.36 682.00   A 0.53 0.53 0.0 0 1 1440.38 682.09   Q 1442.47 693.37 1447.28 705.11   Q 1451.54 715.50 1457.95 723.27   C 1466.95 734.17 1478.43 742.67 1492.87 743.13   C 1504.06 743.48 1512.46 741.48 1522.52 736.26   Q 1538.02 728.21 1549.63 714.13   Q 1553.03 710.00 1557.34 704.98   A 1.10 1.10 0.0 0 1 1559.19 705.28   Q 1561.33 710.56 1563.20 714.53   C 1576.54 742.79 1610.86 753.92 1637.36 735.95   C 1646.94 729.45 1654.05 724.16 1660.22 715.97   C 1663.91 711.07 1669.66 704.69 1673.58 698.32   Q 1681.60 685.28 1688.31 672.32   Q 1690.71 667.69 1692.12 663.77   A 0.32 0.32 0.0 0 1 1692.74 663.87   Q 1693.07 673.05 1693.46 677.93   C 1693.96 684.09 1695.85 690.55 1696.90 696.02   C 1697.34 698.37 1698.57 700.98 1699.26 703.28   Q 1699.90 705.38 1701.58 708.50   Q 1706.76 718.08 1708.53 720.58   Q 1725.40 744.38 1754.55 742.27   C 1769.42 741.20 1785.05 728.79 1794.51 717.76   C 1799.21 712.29 1804.27 706.53 1807.84 700.55   C 1811.51 694.41 1814.72 690.27 1817.84 684.65   Q 1828.67 665.24 1837.79 643.83   C 1842.84 631.96 1853.92 603.06 1836.64 596.14   Q 1832.77 594.59 1830.60 594.64   C 1824.80 594.77 1821.54 599.87 1819.19 604.71   Q 1813.79 615.82 1811.01 622.84   C 1803.98 640.61 1795.59 657.10 1785.43 672.68   Q 1780.58 680.12 1773.09 688.85   C 1768.68 694.00 1761.48 700.29 1754.79 700.23   C 1750.24 700.19 1746.85 698.90 1744.53 695.16   Q 1741.14 689.67 1739.65 681.91   Q 1738.24 674.63 1738.07 656.75   C 1737.93 641.89 1738.78 625.38 1740.60 609.49   Q 1741.79 599.05 1742.25 595.96   Q 1744.21 582.75 1749.04 564.78   Q 1752.03 553.64 1749.15 541.79   Q 1746.02 528.89 1735.09 523.58   Q 1730.13 521.17 1725.60 521.53   Q 1720.75 521.90 1716.46 524.85   A 0.73 0.72 60.5 0 1 1715.39 524.55   Q 1713.85 521.21 1711.60 518.89   C 1697.09 503.96 1681.31 497.77 1660.42 501.68   C 1647.40 504.12 1635.09 510.48 1625.22 517.71   Q 1623.45 519.00 1612.58 528.30   C 1607.89 532.31 1601.77 539.14 1599.04 542.79   Q 1597.62 544.69 1589.39 556.70   Q 1584.74 563.48 1580.88 571.30   Q 1572.14 589.02 1566.55 605.48   C 1562.93 616.12 1560.43 626.71 1557.28 636.80   Q 1552.11 653.34 1540.42 667.43   Q 1529.78 680.26 1528.38 681.88   C 1521.11 690.27 1516.50 696.28 1507.95 700.20   C 1496.10 705.64 1488.27 691.53 1486.61 681.69   Q 1484.34 668.20 1484.64 658.41   Q 1484.82 652.29 1486.33 635.11   Q 1487.66 620.07 1490.58 602.14   C 1491.46 596.71 1491.77 591.25 1492.77 586.38   Q 1493.55 582.56 1494.51 574.61   C 1495.79 564.06 1497.79 553.63 1498.58 542.74   C 1499.66 527.82 1494.06 514.97 1477.29 513.75   C 1470.57 513.25 1462.59 514.20 1457.96 519.20   Q 1455.51 521.84 1453.47 525.87   C 1452.36 528.06 1451.80 531.24 1450.96 533.47   C 1449.39 537.66 1448.86 543.25 1447.98 546.57   Q 1447.22 549.40 1446.74 553.92   Q 1445.06 569.52 1441.88 588.59   Q 1440.72 595.55 1438.99 601.68   C 1436.29 611.28 1433.33 618.08 1430.12 626.86   Q 1428.89 630.26 1424.02 639.50   Q 1423.17 641.11 1416.77 650.42   Q 1412.77 656.25 1409.55 661.34   Q 1401.08 674.71 1390.68 688.67   Q 1382.05 700.25 1369.77 707.75   C 1361.74 712.66 1352.66 713.59 1345.11 707.71   Q 1340.29 703.96 1337.89 699.12   C 1331.55 686.30 1328.57 672.17 1325.34 657.23   Q 1321.11 637.70 1319.32 613.54   Q 1319.14 611.07 1320.18 609.69   Q 1329.91 596.72 1334.54 590.07   Q 1341.54 580.04 1352.85 561.59   C 1358.23 552.80 1362.84 543.94 1367.66 535.68   Q 1373.09 526.39 1387.48 496.44   C 1392.53 485.91 1397.04 475.71 1400.89 466.18   Q 1409.20 445.64 1417.23 415.55   Q 1422.74 394.92 1424.05 388.10   Q 1429.05 362.20 1430.27 338.02   Q 1431.10 321.49 1426.66 300.08   C 1424.77 291.00 1420.39 280.33 1414.63 274.63   Q 1406.15 266.23 1394.77 263.54   C 1378.87 259.79 1361.53 268.23 1350.72 279.73   Q 1342.89 288.07 1338.54 294.53   Q 1325.30 314.19 1315.95 337.44   Q 1307.05 359.58 1301.48 378.70   Q 1297.71 391.65 1296.98 393.91   C 1295.68 397.89 1295.21 401.67 1293.85 405.70   C 1292.77 408.91 1292.58 412.14 1291.54 415.75   C 1289.46 423.00 1288.33 429.57 1286.42 437.95   C 1285.21 443.23 1284.78 448.94 1283.66 453.68   C 1282.20 459.87 1281.77 467.91 1280.57 474.99   C 1279.29 482.58 1279.09 491.58 1277.94 498.81   C 1276.86 505.62 1276.75 509.78 1275.84 515.68   Q 1275.08 520.64 1274.60 528.35   C 1272.98 554.80 1271.52 577.09 1272.95 598.51   Q 1273.24 602.80 1270.36 606.60   C 1260.02 620.27 1251.42 632.33 1240.28 644.28   Q 1236.15 648.72 1224.21 661.28   C 1221.03 664.63 1217.08 668.14 1212.60 672.35   A 0.32 0.32 0.0 0 1 1212.06 672.11   C 1212.05 671.26 1212.56 670.23 1212.66 668.84   Q 1215.73 622.93 1217.08 605.07   C 1218.29 588.93 1218.32 572.87 1220.05 556.85   C 1221.73 541.23 1222.50 522.51 1205.69 514.58   C 1201.60 512.64 1198.39 511.09 1194.20 511.38   Q 1189.46 511.70 1188.91 511.72   A 2.06 2.02 -27.9 0 1 1187.63 511.34   Q 1182.61 507.76 1175.08 504.06   Q 1167.11 500.15 1161.24 499.55   C 1141.17 497.51 1120.09 503.70 1104.27 515.27   Q 1087.00 527.91 1074.65 543.15   Q 1064.55 555.61 1059.21 564.42   Q 1043.56 590.29 1034.79 620.68   Q 1029.55 638.84 1028.53 641.43   Q 1022.23 657.39 1012.57 670.08   Q 1001.27 684.91 996.02 690.50   Q 989.74 697.19 981.73 699.96   C 970.16 703.96 962.97 692.04 960.63 682.83   C 957.85 671.90 957.87 657.17 959.12 646.04   C 960.44 634.23 961.03 625.66 962.65 615.71   Q 964.81 602.37 966.37 590.28   C 966.98 585.64 968.09 581.24 968.58 575.91   Q 968.95 571.86 970.10 565.13   Q 972.32 552.14 973.48 541.77   C 974.50 532.75 973.65 519.95 964.76 514.94   Q 953.14 508.39 940.40 513.68   C 931.49 517.38 928.24 528.49 925.32 537.58   Q 923.49 543.28 922.96 549.58   Q 922.79 551.60 920.57 569.95   Q 919.58 578.12 918.03 585.08   Q 915.58 596.09 914.51 600.05   Q 909.66 618.00 902.27 634.93   Q 895.64 650.10 888.74 661.18   Q 881.96 672.07 872.41 685.82   C 867.94 692.25 863.74 695.42 856.94 698.64   C 853.02 700.50 844.80 700.88 841.82 696.22   Q 836.79 688.37 835.74 679.00   C 834.44 667.42 833.65 656.99 834.51 644.50   Q 835.36 632.20 836.34 619.13   C 836.75 613.66 837.57 608.48 838.38 602.67   Q 838.96 598.56 843.92 573.64   C 845.24 567.06 847.33 559.69 847.79 552.50   Q 848.49 541.51 841.85 531.62   Q 839.64 528.33 834.80 524.92   C 828.44 520.45 819.05 519.37 813.31 525.41   A 0.61 0.60 54.0 0 1 812.33 525.25   C 809.21 518.70 804.27 514.51 798.02 509.74   Q 789.79 503.45 778.57 501.15   C 771.32 499.67 760.67 500.16 752.35 502.67   Q 743.70 505.29 739.89 507.15   C 725.03 514.38 711.32 525.79 700.83 538.33   Q 696.67 543.30 689.69 552.94   C 678.28 568.71 669.90 587.02 664.10 605.55   Q 658.63 623.09 655.90 638.80   Q 655.76 639.65 654.00 651.32   C 652.35 662.26 652.28 672.38 652.91 683.06   C 653.19 687.82 654.33 691.82 654.94 696.69   C 655.64 702.23 658.12 708.98 660.58 714.12   Q 670.94 735.83 692.61 742.54   C 711.39 748.35 728.54 740.20 743.46 728.96   Q 750.45 723.69 755.74 717.18   Q 763.05 708.17 766.16 703.65   Q 774.14 692.04 785.11 671.85   Q 786.94 668.49 788.44 664.83   A 0.14 0.13 53.3 0 1 788.70 664.87"
       id="path3" />
    <path
       stroke="#8f9ba9"
       vector-effect="non-scaling-stroke"
       d="   M 418.65 578.55   A 0.03 0.03 0.0 0 1 418.60 578.53   Q 420.49 562.75 421.31 549.22   Q 422.11 536.11 423.82 519.88   Q 425.72 501.85 426.14 495.80   C 426.94 484.19 428.86 470.19 429.39 457.36   Q 429.49 455.09 431.41 429.16   Q 433.68 398.66 432.05 370.84   Q 431.31 358.27 428.69 347.30   C 428.12 344.95 426.48 339.32 424.63 336.43   C 421.16 331.03 418.70 326.93 413.68 323.39   C 403.69 316.37 390.38 315.25 379.24 320.34   Q 371.58 323.83 367.66 327.21   C 357.65 335.83 350.90 344.76 342.93 356.17   Q 334.15 368.73 320.40 392.85   C 315.21 401.95 311.62 407.96 308.16 414.60   Q 288.33 452.67 270.97 492.37   Q 266.08 503.55 259.22 521.52   C 252.03 540.33 248.02 551.45 241.91 566.74   C 238.62 574.97 235.51 584.19 232.06 592.92   Q 229.92 598.32 228.54 603.28   A 0.34 0.34 0.0 0 1 227.87 603.18   C 228.01 598.75 229.15 594.19 229.80 589.09   C 230.50 583.70 230.87 577.13 231.91 570.31   Q 234.54 553.07 235.87 541.95   Q 236.90 533.34 238.80 517.31   C 239.00 515.64 239.90 513.09 240.16 511.06   Q 241.84 497.87 244.39 483.13   C 245.84 474.82 246.11 468.32 247.80 459.76   C 248.64 455.49 248.90 447.86 249.85 442.11   Q 251.15 434.17 251.68 428.14   C 252.20 422.23 253.62 417.13 254.24 410.60   C 255.04 402.27 256.03 396.87 257.45 387.46   C 259.15 376.11 259.94 364.41 260.87 353.41   Q 261.70 343.60 259.06 335.16   Q 257.46 330.08 250.90 326.11   A 4.70 4.56 -21.7 0 0 249.59 325.57   Q 237.01 322.55 225.93 326.84   C 218.05 329.89 214.02 334.37 212.28 342.77   Q 209.31 357.09 208.83 366.12   C 208.52 372.05 207.04 376.92 206.41 383.43   C 205.64 391.39 204.09 398.76 203.15 407.64   Q 202.70 411.96 201.51 418.82   Q 199.23 432.01 198.06 445.61   C 197.58 451.13 196.17 456.97 195.66 463.15   C 194.94 471.98 193.20 480.78 192.45 490.38   C 192.02 495.77 190.63 502.55 190.34 506.84   Q 189.36 521.61 188.20 528.76   C 187.32 534.19 187.37 538.32 186.45 543.68   C 185.13 551.41 184.99 560.97 183.80 568.81   C 182.25 579.07 182.09 587.59 180.78 596.43   Q 180.06 601.32 179.53 610.11   Q 178.65 624.57 177.37 637.05   Q 176.91 641.54 176.81 645.95   C 176.64 653.40 175.35 660.76 175.05 668.18   Q 174.42 684.02 173.30 697.97   C 171.97 714.47 171.59 732.95 171.67 747.25   Q 171.75 762.87 172.66 768.97   Q 174.20 779.35 175.57 782.61   C 179.32 791.58 182.81 796.64 193.01 797.97   Q 205.66 799.62 215.51 794.26   C 222.21 790.62 223.34 784.05 224.87 776.66   C 225.28 774.71 226.12 772.62 226.48 770.99   Q 228.80 760.45 229.87 755.22   C 231.42 747.68 234.43 739.70 236.16 732.34   Q 237.24 727.73 242.20 712.16   Q 245.75 701.02 248.31 692.01   Q 253.98 672.02 259.48 655.45   Q 263.16 644.34 263.26 644.03   C 266.19 634.58 268.49 628.61 271.39 619.54   Q 273.85 611.88 275.79 606.51   Q 280.47 593.60 290.00 566.47   Q 295.82 549.91 300.74 537.95   Q 302.58 533.48 311.89 509.60   Q 318.06 493.79 331.44 463.91   Q 331.71 463.32 342.07 441.53   Q 352.02 420.60 363.95 400.84   Q 366.77 396.16 369.24 392.76   C 372.48 388.30 375.12 384.27 379.19 381.03   A 0.83 0.82 65.6 0 1 380.51 381.53   Q 381.76 388.20 381.58 397.51   Q 381.39 407.23 380.52 432.50   Q 380.34 437.87 378.45 457.69   Q 376.95 473.47 376.57 482.37   Q 376.10 493.31 375.28 499.87   C 373.86 511.19 373.54 520.33 372.67 532.69   C 372.43 536.06 371.60 540.27 371.32 543.77   Q 369.97 560.90 369.16 567.87   C 368.16 576.52 368.20 583.33 367.31 591.46   Q 366.63 597.71 366.25 609.11   C 365.50 632.21 364.70 650.20 365.44 665.50   C 365.95 675.92 370.31 687.92 379.51 693.58   C 384.06 696.37 392.49 699.70 397.99 699.26   Q 402.10 698.94 407.81 696.77   Q 416.30 693.55 421.20 685.21   Q 424.95 678.84 432.49 663.05   C 436.50 654.67 440.28 644.70 443.38 638.10   Q 446.71 631.02 451.44 619.38   Q 471.90 569.02 477.90 554.60   Q 479.45 550.90 481.06 547.19   Q 482.58 543.69 491.77 523.32   C 497.20 511.29 500.81 502.07 505.64 492.64   Q 506.13 491.69 510.38 482.03   Q 511.62 479.23 515.26 471.49   C 522.42 456.27 529.91 440.23 537.80 425.50   Q 547.51 407.38 556.57 391.06   Q 565.60 374.77 575.30 361.04   Q 581.52 352.23 587.68 346.68   Q 588.25 346.17 588.82 346.10   A 0.39 0.39 0.0 0 1 589.25 346.50   Q 589.19 348.50 588.72 360.35   Q 588.49 365.98 587.28 374.11   Q 586.02 382.63 584.89 391.25   Q 584.65 393.06 584.36 395.25   Q 582.53 409.03 579.94 422.58   C 578.61 429.49 578.18 435.25 576.74 441.37   C 575.45 446.83 575.34 452.66 574.36 456.95   Q 572.84 463.59 572.69 468.66   Q 572.64 470.26 568.78 493.28   Q 567.78 499.24 564.28 528.24   C 563.55 534.30 562.46 540.13 561.88 546.20   C 561.13 553.95 559.74 564.09 558.62 572.42   C 557.12 583.57 556.66 594.53 555.62 605.89   Q 554.90 613.75 554.33 626.63   Q 552.59 665.88 554.58 706.03   Q 555.05 715.63 555.76 720.99   C 556.89 729.64 557.19 739.02 559.10 748.10   Q 559.30 749.03 561.25 760.32   Q 562.83 769.46 564.78 775.65   C 572.05 798.78 587.37 817.47 611.69 823.35   C 619.18 825.16 624.12 824.34 631.25 821.97   C 633.10 821.35 636.49 819.05 637.56 817.91   C 642.11 813.07 639.63 807.97 635.74 803.21   Q 623.25 787.95 615.44 768.07   Q 612.12 759.60 611.05 752.72   C 609.27 741.19 607.65 733.60 607.02 724.37   C 606.30 713.68 605.14 706.47 604.58 696.53   Q 604.48 694.77 603.34 680.25   Q 602.98 675.66 603.05 661.26   C 603.10 649.73 604.03 639.74 604.63 628.43   Q 604.93 622.83 605.76 614.62   C 606.83 604.14 607.12 593.36 608.78 582.36   Q 609.75 576.01 610.38 568.00   C 610.91 561.39 612.09 556.28 612.73 549.28   C 613.69 538.81 616.41 523.28 617.25 516.75   C 618.42 507.71 619.62 502.07 620.56 493.35   Q 621.32 486.25 622.52 479.21   Q 623.42 473.89 624.32 468.39   Q 626.70 453.88 628.98 439.10   Q 629.37 436.57 630.18 432.43   C 631.14 427.49 631.33 423.13 632.48 417.76   Q 633.13 414.73 633.78 409.76   Q 634.69 402.81 638.06 380.08   Q 639.42 370.88 640.76 339.55   Q 640.97 334.43 639.59 317.56   Q 638.61 305.64 633.32 296.46   Q 623.97 280.23 605.04 279.35   Q 594.86 278.87 587.32 284.35   Q 579.90 289.73 572.63 297.64   C 553.11 318.88 536.33 344.79 520.99 370.47   Q 513.99 382.19 503.73 400.74   Q 497.86 411.37 492.08 422.97   Q 483.17 440.87 480.92 445.44   Q 479.21 448.91 478.27 450.91   Q 474.65 458.66 470.94 466.23   C 465.54 477.26 462.15 485.29 456.86 496.54   C 454.09 502.42 449.89 512.60 446.54 519.71   Q 426.39 562.62 418.65 578.55"
       id="path4" />
    <path
       stroke="#4e7a6d"
       vector-effect="non-scaling-stroke"
       d="   M 982.26 362.29   Q 990.21 351.01 997.98 341.71   C 1004.79 333.57 1013.05 326.25 1020.84 318.61   C 1033.36 306.33 1041.42 300.64 1058.26 287.90   C 1064.97 282.82 1069.84 279.93 1076.26 275.58   C 1082.93 271.06 1090.02 267.50 1096.15 264.93   Q 1098.29 264.04 1099.82 264.82   C 1107.38 268.68 1106.68 277.38 1100.73 282.23   Q 1081.46 297.93 1063.53 314.61   Q 1061.85 316.17 1058.13 320.06   Q 1053.58 324.83 1052.84 325.60   Q 1024.80 354.57 1007.82 390.29   A 0.61 0.61 0.0 0 0 1008.25 391.15   Q 1019.81 393.58 1031.76 392.73   C 1038.27 392.26 1044.89 391.65 1051.80 389.99   Q 1057.67 388.58 1064.10 387.08   Q 1069.55 385.81 1085.50 380.26   Q 1091.69 378.11 1102.16 372.60   Q 1109.34 368.82 1116.34 363.66   Q 1125.73 356.75 1129.50 353.26   C 1147.48 336.65 1162.88 315.24 1172.45 291.66   Q 1176.51 281.64 1177.89 276.96   Q 1187.83 243.18 1190.73 207.25   Q 1192.07 190.72 1190.85 173.79   Q 1190.65 171.01 1190.19 168.94   A 0.83 0.82 68.7 0 0 1188.98 168.40   Q 1181.86 172.45 1174.74 175.73   C 1166.52 179.52 1157.18 182.27 1148.60 185.21   Q 1143.84 186.84 1137.26 188.45   Q 1122.14 192.16 1120.63 192.50   C 1112.72 194.28 1107.46 196.11 1097.84 198.88   Q 1085.32 202.50 1071.31 208.30   Q 1055.86 214.70 1051.07 216.84   C 1030.97 225.81 1012.97 238.67 999.42 256.41   Q 984.98 275.31 980.09 299.29   C 976.67 316.07 974.91 332.03 978.35 348.84   Q 979.99 356.89 981.70 362.21   A 0.32 0.31 -36.4 0 0 982.26 362.29"
       id="path5" />
    <path
       stroke="#8f9ba9"
       vector-effect="non-scaling-stroke"
       d="   M 1319.94 548.73   Q 1320.86 547.63 1321.89 545.63   Q 1330.67 528.66 1332.11 526.10   Q 1335.73 519.68 1340.51 509.21   C 1341.68 506.68 1343.62 503.18 1344.55 501.32   Q 1345.49 499.43 1352.16 484.54   Q 1356.19 475.54 1359.15 467.51   C 1363.60 455.49 1368.22 443.89 1372.12 431.88   Q 1374.81 423.60 1378.92 409.97   Q 1388.47 378.27 1392.41 343.99   Q 1394.10 329.25 1391.03 313.27   Q 1389.87 307.24 1385.30 305.25   A 1.71 1.71 0.0 0 0 1384.10 305.20   C 1379.09 306.87 1375.32 311.66 1372.85 315.87   C 1365.82 327.89 1361.65 338.59 1356.05 354.55   Q 1346.54 381.63 1338.89 408.88   Q 1337.64 413.35 1331.55 441.18   C 1330.33 446.75 1330.00 451.54 1328.92 456.56   Q 1327.78 461.82 1327.18 468.12   C 1326.50 475.25 1325.25 481.36 1324.71 488.31   C 1324.02 497.24 1322.53 506.56 1321.91 515.25   Q 1319.83 544.71 1319.60 548.59   A 0.19 0.19 0.0 0 0 1319.94 548.73"
       id="path6" />
    <path
       stroke="#8f9ba9"
       vector-effect="non-scaling-stroke"
       d="   M 1172.52 550.96   Q 1167.16 542.05 1156.45 540.69   C 1141.76 538.84 1129.76 549.18 1119.34 558.32   Q 1115.05 562.08 1109.68 569.59   Q 1100.51 582.41 1093.72 596.08   C 1090.89 601.79 1088.33 609.08 1086.66 613.06   Q 1084.39 618.46 1082.19 625.96   Q 1078.67 638.04 1078.41 639.05   Q 1074.01 656.20 1073.71 673.09   Q 1073.52 683.37 1077.38 690.88   C 1085.78 707.24 1106.75 685.81 1112.84 679.10   Q 1126.21 664.37 1134.76 647.79   Q 1137.59 642.30 1140.42 636.91   C 1145.05 628.09 1147.20 622.17 1151.53 612.89   Q 1153.11 609.49 1157.08 599.80   Q 1168.47 572.01 1169.64 568.68   C 1171.99 561.97 1174.21 557.70 1172.93 551.99   A 3.41 3.37 -67.0 0 0 1172.52 550.96"
       id="path7" />
    <path
       stroke="#8f9ba9"
       vector-effect="non-scaling-stroke"
       d="   M 704.51 695.36   C 707.71 701.39 715.85 698.69 720.19 695.69   Q 725.37 692.12 730.19 686.95   C 739.43 677.02 748.03 665.68 754.76 653.67   C 758.73 646.58 763.41 638.99 767.15 631.02   Q 773.04 618.47 776.35 610.86   C 778.44 606.05 780.40 600.29 782.55 594.98   Q 788.47 580.36 793.06 564.28   Q 793.35 563.28 794.06 558.20   A 4.26 4.25 42.9 0 0 794.00 556.67   C 791.87 547.31 782.93 540.54 773.42 540.67   C 760.01 540.84 744.28 554.97 736.44 564.68   Q 735.02 566.44 728.43 576.40   Q 724.77 581.92 721.33 588.68   Q 710.81 609.35 705.37 631.35   Q 701.58 646.71 701.19 649.37   Q 698.59 667.47 700.59 685.27   Q 700.97 688.66 704.51 695.36"
       id="path8" />
    <path
       stroke="#8f9ba9"
       vector-effect="non-scaling-stroke"
       d="   M 1608.03 696.72   C 1610.04 699.74 1612.47 700.30 1615.86 699.05   Q 1625.59 695.45 1632.92 687.38   Q 1649.18 669.49 1660.38 648.91   Q 1668.88 633.28 1672.49 625.76   Q 1677.28 615.76 1682.86 602.91   Q 1689.27 588.16 1695.57 568.14   C 1698.31 559.44 1697.95 551.84 1690.72 545.93   C 1680.31 537.40 1667.24 540.54 1657.24 547.75   C 1640.37 559.91 1629.08 577.13 1620.42 596.13   Q 1613.91 610.39 1607.31 634.42   C 1606.06 638.98 1605.76 643.20 1604.77 647.94   C 1602.42 659.23 1602.18 671.53 1603.28 682.71   Q 1604.08 690.77 1608.03 696.72"
       id="path9" />
    <path
       stroke="#8f9ba9"
       vector-effect="non-scaling-stroke"
       d="   M 1157.24 774.04   A 0.21 0.21 0.0 0 0 1156.86 773.92   Q 1155.55 775.50 1145.87 786.03   C 1127.03 806.54 1107.91 823.91 1093.88 846.12   Q 1084.78 860.54 1077.20 877.33   C 1071.99 888.86 1068.79 899.49 1067.91 911.30   Q 1067.04 923.03 1071.82 933.87   C 1074.40 939.72 1079.56 944.97 1086.01 945.41   C 1098.89 946.29 1108.05 936.06 1114.54 926.01   Q 1121.59 915.10 1125.24 906.50   Q 1133.99 885.84 1138.42 871.01   C 1140.17 865.19 1142.11 860.20 1143.44 854.72   C 1145.22 847.42 1147.87 837.90 1149.22 830.29   C 1150.55 822.79 1152.92 813.11 1154.21 804.18   C 1156.08 791.26 1157.73 782.90 1157.24 774.04"
       id="path10" />
  </g>
  <path
     fill="none"
     d="   M 1969.00 0.00   L 1969.00 1065.00   L 0.00 1065.00   L 0.00 0.00   L 1969.00 0.00   Z   M 1707.57 177.99   C 1704.57 185.07 1700.66 191.51 1697.69 197.29   Q 1689.34 213.51 1685.20 219.70   Q 1672.86 238.15 1669.60 242.89   Q 1669.57 242.93 1664.71 249.69   C 1644.49 277.81 1625.99 301.46 1604.13 324.14   C 1585.54 343.43 1565.69 362.07 1544.79 378.02   Q 1526.12 392.26 1515.59 399.33   Q 1506.15 405.66 1476.17 421.42   C 1471.72 423.76 1466.89 426.67 1465.19 431.68   C 1461.65 442.15 1465.64 453.42 1475.15 458.97   C 1480.87 462.31 1490.79 462.70 1496.62 460.33   Q 1502.18 458.07 1511.40 452.65   Q 1525.67 444.27 1535.20 438.19   Q 1545.21 431.80 1572.49 411.47   Q 1578.28 407.16 1596.00 391.99   Q 1631.93 361.21 1661.97 324.22   Q 1673.18 310.41 1684.42 295.94   Q 1690.28 288.40 1696.20 279.79   C 1702.99 269.90 1711.09 258.59 1718.00 247.83   Q 1726.26 234.98 1728.08 232.10   Q 1733.87 222.91 1743.62 204.13   Q 1744.90 201.67 1745.82 200.36   A 0.57 0.57 0.0 0 1 1746.85 200.67   Q 1747.13 208.60 1747.62 212.51   C 1748.79 221.90 1748.74 225.09 1749.43 233.94   C 1750.16 243.27 1751.41 252.18 1752.23 261.50   C 1753.00 270.27 1755.70 281.07 1762.94 286.14   Q 1768.65 290.14 1775.90 290.49   C 1783.00 290.83 1788.46 287.80 1792.34 281.91   C 1794.89 278.03 1795.22 271.09 1794.89 267.01   Q 1793.31 247.08 1791.32 230.30   C 1789.84 217.78 1789.72 202.75 1788.30 191.98   C 1787.13 183.00 1787.14 172.47 1785.78 164.01   Q 1784.93 158.71 1783.92 145.05   Q 1783.21 135.57 1781.23 125.26   C 1780.26 120.23 1778.61 113.19 1774.41 110.11   C 1766.95 104.67 1759.55 105.19 1751.55 109.27   Q 1727.81 121.39 1708.02 130.60   Q 1680.86 143.24 1673.02 147.11   Q 1653.42 156.79 1638.16 163.87   Q 1630.35 167.49 1625.99 169.52   Q 1620.45 172.10 1617.05 176.79   C 1613.11 182.23 1612.10 189.72 1614.61 195.66   C 1620.57 209.81 1638.32 209.99 1650.43 204.16   C 1659.55 199.77 1668.07 195.24 1676.77 191.27   Q 1688.07 186.10 1699.72 180.73   Q 1706.32 177.69 1707.17 177.50   A 0.36 0.36 0.0 0 1 1707.57 177.99   Z   M 993.08 425.60   Q 1012.21 427.57 1031.98 425.10   C 1041.81 423.88 1050.07 423.21 1059.34 421.22   C 1073.99 418.09 1086.76 414.99 1099.50 409.83   Q 1109.50 405.77 1111.48 404.75   Q 1132.02 394.10 1145.55 383.55   Q 1172.25 362.74 1189.52 332.82   Q 1202.06 311.09 1209.13 290.70   Q 1215.28 272.99 1219.97 248.55   Q 1222.78 233.92 1223.56 219.51   C 1224.31 205.80 1225.21 188.98 1224.17 173.32   Q 1223.27 159.76 1222.74 156.50   Q 1220.34 141.80 1218.14 135.59   C 1215.47 128.08 1210.05 121.80 1201.32 124.82   C 1198.66 125.74 1195.19 127.28 1191.84 129.12   Q 1174.02 138.89 1170.13 140.61   Q 1148.23 150.27 1129.83 155.01   Q 1095.66 163.82 1085.68 166.93   Q 1073.91 170.59 1069.53 172.33   C 1059.57 176.29 1051.10 179.35 1043.33 182.89   Q 1025.81 190.86 1008.97 201.91   C 999.48 208.13 990.27 216.13 982.99 223.74   Q 961.77 245.91 952.29 275.78   C 950.48 281.46 948.28 288.33 947.54 294.02   C 946.83 299.51 945.21 306.45 944.87 312.70   Q 943.17 343.49 948.61 368.71   Q 951.00 379.84 958.20 396.89   C 959.23 399.32 960.88 401.52 961.79 404.06   A 2.28 2.27 43.6 0 1 961.83 405.47   Q 961.09 408.00 960.64 409.14   Q 950.11 436.33 944.62 449.62   C 940.27 460.15 940.05 470.22 952.02 475.07   C 959.55 478.12 966.26 478.66 973.38 474.10   Q 976.71 471.96 977.98 467.95   C 980.26 460.74 981.98 454.09 984.83 446.93   Q 987.55 440.09 989.72 432.99   Q 991.11 428.44 992.33 426.01   A 0.74 0.74 0.0 0 1 993.08 425.60   Z   M 788.70 664.87   Q 790.06 676.95 790.07 677.12   C 791.38 691.64 795.58 704.69 803.24 717.24   Q 811.99 731.55 826.25 738.06   Q 836.81 742.87 846.75 742.27   Q 857.16 741.64 866.97 736.69   Q 879.40 730.42 890.30 717.82   Q 902.03 704.27 908.95 691.71   Q 911.67 686.77 913.71 681.40   A 0.43 0.43 0.0 0 1 914.54 681.49   Q 916.70 696.19 923.30 710.10   C 928.49 721.03 935.27 728.71 944.95 735.30   C 954.90 742.08 966.89 743.72 978.52 741.60   C 993.13 738.94 1008.17 728.36 1018.59 717.94   C 1022.87 713.67 1026.20 709.12 1030.62 703.64   A 0.35 0.35 0.0 0 1 1031.22 703.76   C 1037.69 724.36 1054.50 739.51 1076.33 741.78   C 1087.47 742.93 1099.53 738.06 1108.35 731.84   Q 1125.22 719.92 1138.93 703.87   Q 1146.50 695.02 1153.56 682.46   Q 1160.64 669.87 1165.80 659.47   A 0.17 0.17 0.0 0 1 1166.12 659.56   Q 1165.04 683.28 1164.03 697.25   Q 1163.46 705.21 1163.75 716.51   Q 1163.88 721.74 1159.67 725.66   Q 1128.42 754.79 1100.86 783.11   Q 1087.79 796.53 1074.44 812.21   Q 1047.73 843.59 1034.92 882.79   C 1031.84 892.22 1029.43 903.17 1028.50 912.02   C 1026.10 934.79 1034.79 962.76 1053.52 976.52   Q 1059.73 981.08 1063.06 982.73   C 1072.10 987.22 1083.24 989.16 1093.28 988.24   Q 1110.79 986.64 1125.86 977.30   C 1135.80 971.13 1144.37 961.61 1151.17 951.41   Q 1163.43 932.99 1171.70 912.67   Q 1178.16 896.78 1182.62 882.65   Q 1183.15 880.99 1186.25 870.56   C 1188.48 863.08 1190.63 853.38 1192.11 847.09   C 1194.22 838.04 1196.00 828.12 1197.32 821.97   C 1199.25 812.98 1199.92 804.25 1201.65 794.64   C 1202.42 790.33 1202.66 782.60 1203.55 777.47   C 1205.06 768.87 1205.53 758.25 1206.83 748.78   Q 1208.20 738.77 1209.82 722.74   A 5.29 5.29 0.0 0 1 1211.53 719.34   Q 1223.45 708.48 1231.51 700.52   Q 1237.17 694.92 1269.36 659.78   C 1271.50 657.44 1273.22 654.82 1274.94 651.91   A 0.46 0.46 0.0 0 1 1275.79 652.17   L 1275.67 655.00   A 4.68 4.59 40.8 0 0 1275.77 656.21   Q 1279.45 673.30 1280.53 677.50   Q 1285.15 695.44 1293.03 711.89   Q 1303.19 733.13 1321.71 745.93   C 1332.38 753.30 1346.90 758.06 1360.22 755.41   Q 1386.31 750.21 1405.70 730.73   C 1411.89 724.52 1416.47 718.32 1424.00 707.88   Q 1426.75 704.07 1429.82 699.00   C 1433.30 693.24 1436.97 688.29 1439.36 682.00   A 0.53 0.53 0.0 0 1 1440.38 682.09   Q 1442.47 693.37 1447.28 705.11   Q 1451.54 715.50 1457.95 723.27   C 1466.95 734.17 1478.43 742.67 1492.87 743.13   C 1504.06 743.48 1512.46 741.48 1522.52 736.26   Q 1538.02 728.21 1549.63 714.13   Q 1553.03 710.00 1557.34 704.98   A 1.10 1.10 0.0 0 1 1559.19 705.28   Q 1561.33 710.56 1563.20 714.53   C 1576.54 742.79 1610.86 753.92 1637.36 735.95   C 1646.94 729.45 1654.05 724.16 1660.22 715.97   C 1663.91 711.07 1669.66 704.69 1673.58 698.32   Q 1681.60 685.28 1688.31 672.32   Q 1690.71 667.69 1692.12 663.77   A 0.32 0.32 0.0 0 1 1692.74 663.87   Q 1693.07 673.05 1693.46 677.93   C 1693.96 684.09 1695.85 690.55 1696.90 696.02   C 1697.34 698.37 1698.57 700.98 1699.26 703.28   Q 1699.90 705.38 1701.58 708.50   Q 1706.76 718.08 1708.53 720.58   Q 1725.40 744.38 1754.55 742.27   C 1769.42 741.20 1785.05 728.79 1794.51 717.76   C 1799.21 712.29 1804.27 706.53 1807.84 700.55   C 1811.51 694.41 1814.72 690.27 1817.84 684.65   Q 1828.67 665.24 1837.79 643.83   C 1842.84 631.96 1853.92 603.06 1836.64 596.14   Q 1832.77 594.59 1830.60 594.64   C 1824.80 594.77 1821.54 599.87 1819.19 604.71   Q 1813.79 615.82 1811.01 622.84   C 1803.98 640.61 1795.59 657.10 1785.43 672.68   Q 1780.58 680.12 1773.09 688.85   C 1768.68 694.00 1761.48 700.29 1754.79 700.23   C 1750.24 700.19 1746.85 698.90 1744.53 695.16   Q 1741.14 689.67 1739.65 681.91   Q 1738.24 674.63 1738.07 656.75   C 1737.93 641.89 1738.78 625.38 1740.60 609.49   Q 1741.79 599.05 1742.25 595.96   Q 1744.21 582.75 1749.04 564.78   Q 1752.03 553.64 1749.15 541.79   Q 1746.02 528.89 1735.09 523.58   Q 1730.13 521.17 1725.60 521.53   Q 1720.75 521.90 1716.46 524.85   A 0.73 0.72 60.5 0 1 1715.39 524.55   Q 1713.85 521.21 1711.60 518.89   C 1697.09 503.96 1681.31 497.77 1660.42 501.68   C 1647.40 504.12 1635.09 510.48 1625.22 517.71   Q 1623.45 519.00 1612.58 528.30   C 1607.89 532.31 1601.77 539.14 1599.04 542.79   Q 1597.62 544.69 1589.39 556.70   Q 1584.74 563.48 1580.88 571.30   Q 1572.14 589.02 1566.55 605.48   C 1562.93 616.12 1560.43 626.71 1557.28 636.80   Q 1552.11 653.34 1540.42 667.43   Q 1529.78 680.26 1528.38 681.88   C 1521.11 690.27 1516.50 696.28 1507.95 700.20   C 1496.10 705.64 1488.27 691.53 1486.61 681.69   Q 1484.34 668.20 1484.64 658.41   Q 1484.82 652.29 1486.33 635.11   Q 1487.66 620.07 1490.58 602.14   C 1491.46 596.71 1491.77 591.25 1492.77 586.38   Q 1493.55 582.56 1494.51 574.61   C 1495.79 564.06 1497.79 553.63 1498.58 542.74   C 1499.66 527.82 1494.06 514.97 1477.29 513.75   C 1470.57 513.25 1462.59 514.20 1457.96 519.20   Q 1455.51 521.84 1453.47 525.87   C 1452.36 528.06 1451.80 531.24 1450.96 533.47   C 1449.39 537.66 1448.86 543.25 1447.98 546.57   Q 1447.22 549.40 1446.74 553.92   Q 1445.06 569.52 1441.88 588.59   Q 1440.72 595.55 1438.99 601.68   C 1436.29 611.28 1433.33 618.08 1430.12 626.86   Q 1428.89 630.26 1424.02 639.50   Q 1423.17 641.11 1416.77 650.42   Q 1412.77 656.25 1409.55 661.34   Q 1401.08 674.71 1390.68 688.67   Q 1382.05 700.25 1369.77 707.75   C 1361.74 712.66 1352.66 713.59 1345.11 707.71   Q 1340.29 703.96 1337.89 699.12   C 1331.55 686.30 1328.57 672.17 1325.34 657.23   Q 1321.11 637.70 1319.32 613.54   Q 1319.14 611.07 1320.18 609.69   Q 1329.91 596.72 1334.54 590.07   Q 1341.54 580.04 1352.85 561.59   C 1358.23 552.80 1362.84 543.94 1367.66 535.68   Q 1373.09 526.39 1387.48 496.44   C 1392.53 485.91 1397.04 475.71 1400.89 466.18   Q 1409.20 445.64 1417.23 415.55   Q 1422.74 394.92 1424.05 388.10   Q 1429.05 362.20 1430.27 338.02   Q 1431.10 321.49 1426.66 300.08   C 1424.77 291.00 1420.39 280.33 1414.63 274.63   Q 1406.15 266.23 1394.77 263.54   C 1378.87 259.79 1361.53 268.23 1350.72 279.73   Q 1342.89 288.07 1338.54 294.53   Q 1325.30 314.19 1315.95 337.44   Q 1307.05 359.58 1301.48 378.70   Q 1297.71 391.65 1296.98 393.91   C 1295.68 397.89 1295.21 401.67 1293.85 405.70   C 1292.77 408.91 1292.58 412.14 1291.54 415.75   C 1289.46 423.00 1288.33 429.57 1286.42 437.95   C 1285.21 443.23 1284.78 448.94 1283.66 453.68   C 1282.20 459.87 1281.77 467.91 1280.57 474.99   C 1279.29 482.58 1279.09 491.58 1277.94 498.81   C 1276.86 505.62 1276.75 509.78 1275.84 515.68   Q 1275.08 520.64 1274.60 528.35   C 1272.98 554.80 1271.52 577.09 1272.95 598.51   Q 1273.24 602.80 1270.36 606.60   C 1260.02 620.27 1251.42 632.33 1240.28 644.28   Q 1236.15 648.72 1224.21 661.28   C 1221.03 664.63 1217.08 668.14 1212.60 672.35   A 0.32 0.32 0.0 0 1 1212.06 672.11   C 1212.05 671.26 1212.56 670.23 1212.66 668.84   Q 1215.73 622.93 1217.08 605.07   C 1218.29 588.93 1218.32 572.87 1220.05 556.85   C 1221.73 541.23 1222.50 522.51 1205.69 514.58   C 1201.60 512.64 1198.39 511.09 1194.20 511.38   Q 1189.46 511.70 1188.91 511.72   A 2.06 2.02 -27.9 0 1 1187.63 511.34   Q 1182.61 507.76 1175.08 504.06   Q 1167.11 500.15 1161.24 499.55   C 1141.17 497.51 1120.09 503.70 1104.27 515.27   Q 1087.00 527.91 1074.65 543.15   Q 1064.55 555.61 1059.21 564.42   Q 1043.56 590.29 1034.79 620.68   Q 1029.55 638.84 1028.53 641.43   Q 1022.23 657.39 1012.57 670.08   Q 1001.27 684.91 996.02 690.50   Q 989.74 697.19 981.73 699.96   C 970.16 703.96 962.97 692.04 960.63 682.83   C 957.85 671.90 957.87 657.17 959.12 646.04   C 960.44 634.23 961.03 625.66 962.65 615.71   Q 964.81 602.37 966.37 590.28   C 966.98 585.64 968.09 581.24 968.58 575.91   Q 968.95 571.86 970.10 565.13   Q 972.32 552.14 973.48 541.77   C 974.50 532.75 973.65 519.95 964.76 514.94   Q 953.14 508.39 940.40 513.68   C 931.49 517.38 928.24 528.49 925.32 537.58   Q 923.49 543.28 922.96 549.58   Q 922.79 551.60 920.57 569.95   Q 919.58 578.12 918.03 585.08   Q 915.58 596.09 914.51 600.05   Q 909.66 618.00 902.27 634.93   Q 895.64 650.10 888.74 661.18   Q 881.96 672.07 872.41 685.82   C 867.94 692.25 863.74 695.42 856.94 698.64   C 853.02 700.50 844.80 700.88 841.82 696.22   Q 836.79 688.37 835.74 679.00   C 834.44 667.42 833.65 656.99 834.51 644.50   Q 835.36 632.20 836.34 619.13   C 836.75 613.66 837.57 608.48 838.38 602.67   Q 838.96 598.56 843.92 573.64   C 845.24 567.06 847.33 559.69 847.79 552.50   Q 848.49 541.51 841.85 531.62   Q 839.64 528.33 834.80 524.92   C 828.44 520.45 819.05 519.37 813.31 525.41   A 0.61 0.60 54.0 0 1 812.33 525.25   C 809.21 518.70 804.27 514.51 798.02 509.74   Q 789.79 503.45 778.57 501.15   C 771.32 499.67 760.67 500.16 752.35 502.67   Q 743.70 505.29 739.89 507.15   C 725.03 514.38 711.32 525.79 700.83 538.33   Q 696.67 543.30 689.69 552.94   C 678.28 568.71 669.90 587.02 664.10 605.55   Q 658.63 623.09 655.90 638.80   Q 655.76 639.65 654.00 651.32   C 652.35 662.26 652.28 672.38 652.91 683.06   C 653.19 687.82 654.33 691.82 654.94 696.69   C 655.64 702.23 658.12 708.98 660.58 714.12   Q 670.94 735.83 692.61 742.54   C 711.39 748.35 728.54 740.20 743.46 728.96   Q 750.45 723.69 755.74 717.18   Q 763.05 708.17 766.16 703.65   Q 774.14 692.04 785.11 671.85   Q 786.94 668.49 788.44 664.83   A 0.14 0.13 53.3 0 1 788.70 664.87   Z   M 418.65 578.55   A 0.03 0.03 0.0 0 1 418.60 578.53   Q 420.49 562.75 421.31 549.22   Q 422.11 536.11 423.82 519.88   Q 425.72 501.85 426.14 495.80   C 426.94 484.19 428.86 470.19 429.39 457.36   Q 429.49 455.09 431.41 429.16   Q 433.68 398.66 432.05 370.84   Q 431.31 358.27 428.69 347.30   C 428.12 344.95 426.48 339.32 424.63 336.43   C 421.16 331.03 418.70 326.93 413.68 323.39   C 403.69 316.37 390.38 315.25 379.24 320.34   Q 371.58 323.83 367.66 327.21   C 357.65 335.83 350.90 344.76 342.93 356.17   Q 334.15 368.73 320.40 392.85   C 315.21 401.95 311.62 407.96 308.16 414.60   Q 288.33 452.67 270.97 492.37   Q 266.08 503.55 259.22 521.52   C 252.03 540.33 248.02 551.45 241.91 566.74   C 238.62 574.97 235.51 584.19 232.06 592.92   Q 229.92 598.32 228.54 603.28   A 0.34 0.34 0.0 0 1 227.87 603.18   C 228.01 598.75 229.15 594.19 229.80 589.09   C 230.50 583.70 230.87 577.13 231.91 570.31   Q 234.54 553.07 235.87 541.95   Q 236.90 533.34 238.80 517.31   C 239.00 515.64 239.90 513.09 240.16 511.06   Q 241.84 497.87 244.39 483.13   C 245.84 474.82 246.11 468.32 247.80 459.76   C 248.64 455.49 248.90 447.86 249.85 442.11   Q 251.15 434.17 251.68 428.14   C 252.20 422.23 253.62 417.13 254.24 410.60   C 255.04 402.27 256.03 396.87 257.45 387.46   C 259.15 376.11 259.94 364.41 260.87 353.41   Q 261.70 343.60 259.06 335.16   Q 257.46 330.08 250.90 326.11   A 4.70 4.56 -21.7 0 0 249.59 325.57   Q 237.01 322.55 225.93 326.84   C 218.05 329.89 214.02 334.37 212.28 342.77   Q 209.31 357.09 208.83 366.12   C 208.52 372.05 207.04 376.92 206.41 383.43   C 205.64 391.39 204.09 398.76 203.15 407.64   Q 202.70 411.96 201.51 418.82   Q 199.23 432.01 198.06 445.61   C 197.58 451.13 196.17 456.97 195.66 463.15   C 194.94 471.98 193.20 480.78 192.45 490.38   C 192.02 495.77 190.63 502.55 190.34 506.84   Q 189.36 521.61 188.20 528.76   C 187.32 534.19 187.37 538.32 186.45 543.68   C 185.13 551.41 184.99 560.97 183.80 568.81   C 182.25 579.07 182.09 587.59 180.78 596.43   Q 180.06 601.32 179.53 610.11   Q 178.65 624.57 177.37 637.05   Q 176.91 641.54 176.81 645.95   C 176.64 653.40 175.35 660.76 175.05 668.18   Q 174.42 684.02 173.30 697.97   C 171.97 714.47 171.59 732.95 171.67 747.25   Q 171.75 762.87 172.66 768.97   Q 174.20 779.35 175.57 782.61   C 179.32 791.58 182.81 796.64 193.01 797.97   Q 205.66 799.62 215.51 794.26   C 222.21 790.62 223.34 784.05 224.87 776.66   C 225.28 774.71 226.12 772.62 226.48 770.99   Q 228.80 760.45 229.87 755.22   C 231.42 747.68 234.43 739.70 236.16 732.34   Q 237.24 727.73 242.20 712.16   Q 245.75 701.02 248.31 692.01   Q 253.98 672.02 259.48 655.45   Q 263.16 644.34 263.26 644.03   C 266.19 634.58 268.49 628.61 271.39 619.54   Q 273.85 611.88 275.79 606.51   Q 280.47 593.60 290.00 566.47   Q 295.82 549.91 300.74 537.95   Q 302.58 533.48 311.89 509.60   Q 318.06 493.79 331.44 463.91   Q 331.71 463.32 342.07 441.53   Q 352.02 420.60 363.95 400.84   Q 366.77 396.16 369.24 392.76   C 372.48 388.30 375.12 384.27 379.19 381.03   A 0.83 0.82 65.6 0 1 380.51 381.53   Q 381.76 388.20 381.58 397.51   Q 381.39 407.23 380.52 432.50   Q 380.34 437.87 378.45 457.69   Q 376.95 473.47 376.57 482.37   Q 376.10 493.31 375.28 499.87   C 373.86 511.19 373.54 520.33 372.67 532.69   C 372.43 536.06 371.60 540.27 371.32 543.77   Q 369.97 560.90 369.16 567.87   C 368.16 576.52 368.20 583.33 367.31 591.46   Q 366.63 597.71 366.25 609.11   C 365.50 632.21 364.70 650.20 365.44 665.50   C 365.95 675.92 370.31 687.92 379.51 693.58   C 384.06 696.37 392.49 699.70 397.99 699.26   Q 402.10 698.94 407.81 696.77   Q 416.30 693.55 421.20 685.21   Q 424.95 678.84 432.49 663.05   C 436.50 654.67 440.28 644.70 443.38 638.10   Q 446.71 631.02 451.44 619.38   Q 471.90 569.02 477.90 554.60   Q 479.45 550.90 481.06 547.19   Q 482.58 543.69 491.77 523.32   C 497.20 511.29 500.81 502.07 505.64 492.64   Q 506.13 491.69 510.38 482.03   Q 511.62 479.23 515.26 471.49   C 522.42 456.27 529.91 440.23 537.80 425.50   Q 547.51 407.38 556.57 391.06   Q 565.60 374.77 575.30 361.04   Q 581.52 352.23 587.68 346.68   Q 588.25 346.17 588.82 346.10   A 0.39 0.39 0.0 0 1 589.25 346.50   Q 589.19 348.50 588.72 360.35   Q 588.49 365.98 587.28 374.11   Q 586.02 382.63 584.89 391.25   Q 584.65 393.06 584.36 395.25   Q 582.53 409.03 579.94 422.58   C 578.61 429.49 578.18 435.25 576.74 441.37   C 575.45 446.83 575.34 452.66 574.36 456.95   Q 572.84 463.59 572.69 468.66   Q 572.64 470.26 568.78 493.28   Q 567.78 499.24 564.28 528.24   C 563.55 534.30 562.46 540.13 561.88 546.20   C 561.13 553.95 559.74 564.09 558.62 572.42   C 557.12 583.57 556.66 594.53 555.62 605.89   Q 554.90 613.75 554.33 626.63   Q 552.59 665.88 554.58 706.03   Q 555.05 715.63 555.76 720.99   C 556.89 729.64 557.19 739.02 559.10 748.10   Q 559.30 749.03 561.25 760.32   Q 562.83 769.46 564.78 775.65   C 572.05 798.78 587.37 817.47 611.69 823.35   C 619.18 825.16 624.12 824.34 631.25 821.97   C 633.10 821.35 636.49 819.05 637.56 817.91   C 642.11 813.07 639.63 807.97 635.74 803.21   Q 623.25 787.95 615.44 768.07   Q 612.12 759.60 611.05 752.72   C 609.27 741.19 607.65 733.60 607.02 724.37   C 606.30 713.68 605.14 706.47 604.58 696.53   Q 604.48 694.77 603.34 680.25   Q 602.98 675.66 603.05 661.26   C 603.10 649.73 604.03 639.74 604.63 628.43   Q 604.93 622.83 605.76 614.62   C 606.83 604.14 607.12 593.36 608.78 582.36   Q 609.75 576.01 610.38 568.00   C 610.91 561.39 612.09 556.28 612.73 549.28   C 613.69 538.81 616.41 523.28 617.25 516.75   C 618.42 507.71 619.62 502.07 620.56 493.35   Q 621.32 486.25 622.52 479.21   Q 623.42 473.89 624.32 468.39   Q 626.70 453.88 628.98 439.10   Q 629.37 436.57 630.18 432.43   C 631.14 427.49 631.33 423.13 632.48 417.76   Q 633.13 414.73 633.78 409.76   Q 634.69 402.81 638.06 380.08   Q 639.42 370.88 640.76 339.55   Q 640.97 334.43 639.59 317.56   Q 638.61 305.64 633.32 296.46   Q 623.97 280.23 605.04 279.35   Q 594.86 278.87 587.32 284.35   Q 579.90 289.73 572.63 297.64   C 553.11 318.88 536.33 344.79 520.99 370.47   Q 513.99 382.19 503.73 400.74   Q 497.86 411.37 492.08 422.97   Q 483.17 440.87 480.92 445.44   Q 479.21 448.91 478.27 450.91   Q 474.65 458.66 470.94 466.23   C 465.54 477.26 462.15 485.29 456.86 496.54   C 454.09 502.42 449.89 512.60 446.54 519.71   Q 426.39 562.62 418.65 578.55   Z"
     id="path11" />
  <path
     fill="#1e3652"
     d="   M 1707.17 177.50   Q 1706.32 177.69 1699.72 180.73   Q 1688.07 186.10 1676.77 191.27   C 1668.07 195.24 1659.55 199.77 1650.43 204.16   C 1638.32 209.99 1620.57 209.81 1614.61 195.66   C 1612.10 189.72 1613.11 182.23 1617.05 176.79   Q 1620.45 172.10 1625.99 169.52   Q 1630.35 167.49 1638.16 163.87   Q 1653.42 156.79 1673.02 147.11   Q 1680.86 143.24 1708.02 130.60   Q 1727.81 121.39 1751.55 109.27   C 1759.55 105.19 1766.95 104.67 1774.41 110.11   C 1778.61 113.19 1780.26 120.23 1781.23 125.26   Q 1783.21 135.57 1783.92 145.05   Q 1784.93 158.71 1785.78 164.01   C 1787.14 172.47 1787.13 183.00 1788.30 191.98   C 1789.72 202.75 1789.84 217.78 1791.32 230.30   Q 1793.31 247.08 1794.89 267.01   C 1795.22 271.09 1794.89 278.03 1792.34 281.91   C 1788.46 287.80 1783.00 290.83 1775.90 290.49   Q 1768.65 290.14 1762.94 286.14   C 1755.70 281.07 1753.00 270.27 1752.23 261.50   C 1751.41 252.18 1750.16 243.27 1749.43 233.94   C 1748.74 225.09 1748.79 221.90 1747.62 212.51   Q 1747.13 208.60 1746.85 200.67   A 0.57 0.57 0.0 0 0 1745.82 200.36   Q 1744.90 201.67 1743.62 204.13   Q 1733.87 222.91 1728.08 232.10   Q 1726.26 234.98 1718.00 247.83   C 1711.09 258.59 1702.99 269.90 1696.20 279.79   Q 1690.28 288.40 1684.42 295.94   Q 1673.18 310.41 1661.97 324.22   Q 1631.93 361.21 1596.00 391.99   Q 1578.28 407.16 1572.49 411.47   Q 1545.21 431.80 1535.20 438.19   Q 1525.67 444.27 1511.40 452.65   Q 1502.18 458.07 1496.62 460.33   C 1490.79 462.70 1480.87 462.31 1475.15 458.97   C 1465.64 453.42 1461.65 442.15 1465.19 431.68   C 1466.89 426.67 1471.72 423.76 1476.17 421.42   Q 1506.15 405.66 1515.59 399.33   Q 1526.12 392.26 1544.79 378.02   C 1565.69 362.07 1585.54 343.43 1604.13 324.14   C 1625.99 301.46 1644.49 277.81 1664.71 249.69   Q 1669.57 242.93 1669.60 242.89   Q 1672.86 238.15 1685.20 219.70   Q 1689.34 213.51 1697.69 197.29   C 1700.66 191.51 1704.57 185.07 1707.57 177.99   A 0.36 0.36 0.0 0 0 1707.17 177.50   Z"
     id="path12" />
  <path
     fill="#1e3652"
     d="   M 992.33 426.01   Q 991.11 428.44 989.72 432.99   Q 987.55 440.09 984.83 446.93   C 981.98 454.09 980.26 460.74 977.98 467.95   Q 976.71 471.96 973.38 474.10   C 966.26 478.66 959.55 478.12 952.02 475.07   C 940.05 470.22 940.27 460.15 944.62 449.62   Q 950.11 436.33 960.64 409.14   Q 961.09 408.00 961.83 405.47   A 2.28 2.27 43.6 0 0 961.79 404.06   C 960.88 401.52 959.23 399.32 958.20 396.89   Q 951.00 379.84 948.61 368.71   Q 943.17 343.49 944.87 312.70   C 945.21 306.45 946.83 299.51 947.54 294.02   C 948.28 288.33 950.48 281.46 952.29 275.78   Q 961.77 245.91 982.99 223.74   C 990.27 216.13 999.48 208.13 1008.97 201.91   Q 1025.81 190.86 1043.33 182.89   C 1051.10 179.35 1059.57 176.29 1069.53 172.33   Q 1073.91 170.59 1085.68 166.93   Q 1095.66 163.82 1129.83 155.01   Q 1148.23 150.27 1170.13 140.61   Q 1174.02 138.89 1191.84 129.12   C 1195.19 127.28 1198.66 125.74 1201.32 124.82   C 1210.05 121.80 1215.47 128.08 1218.14 135.59   Q 1220.34 141.80 1222.74 156.50   Q 1223.27 159.76 1224.17 173.32   C 1225.21 188.98 1224.31 205.80 1223.56 219.51   Q 1222.78 233.92 1219.97 248.55   Q 1215.28 272.99 1209.13 290.70   Q 1202.06 311.09 1189.52 332.82   Q 1172.25 362.74 1145.55 383.55   Q 1132.02 394.10 1111.48 404.75   Q 1109.50 405.77 1099.50 409.83   C 1086.76 414.99 1073.99 418.09 1059.34 421.22   C 1050.07 423.21 1041.81 423.88 1031.98 425.10   Q 1012.21 427.57 993.08 425.60   A 0.74 0.74 0.0 0 0 992.33 426.01   Z   M 982.26 362.29   Q 990.21 351.01 997.98 341.71   C 1004.79 333.57 1013.05 326.25 1020.84 318.61   C 1033.36 306.33 1041.42 300.64 1058.26 287.90   C 1064.97 282.82 1069.84 279.93 1076.26 275.58   C 1082.93 271.06 1090.02 267.50 1096.15 264.93   Q 1098.29 264.04 1099.82 264.82   C 1107.38 268.68 1106.68 277.38 1100.73 282.23   Q 1081.46 297.93 1063.53 314.61   Q 1061.85 316.17 1058.13 320.06   Q 1053.58 324.83 1052.84 325.60   Q 1024.80 354.57 1007.82 390.29   A 0.61 0.61 0.0 0 0 1008.25 391.15   Q 1019.81 393.58 1031.76 392.73   C 1038.27 392.26 1044.89 391.65 1051.80 389.99   Q 1057.67 388.58 1064.10 387.08   Q 1069.55 385.81 1085.50 380.26   Q 1091.69 378.11 1102.16 372.60   Q 1109.34 368.82 1116.34 363.66   Q 1125.73 356.75 1129.50 353.26   C 1147.48 336.65 1162.88 315.24 1172.45 291.66   Q 1176.51 281.64 1177.89 276.96   Q 1187.83 243.18 1190.73 207.25   Q 1192.07 190.72 1190.85 173.79   Q 1190.65 171.01 1190.19 168.94   A 0.83 0.82 68.7 0 0 1188.98 168.40   Q 1181.86 172.45 1174.74 175.73   C 1166.52 179.52 1157.18 182.27 1148.60 185.21   Q 1143.84 186.84 1137.26 188.45   Q 1122.14 192.16 1120.63 192.50   C 1112.72 194.28 1107.46 196.11 1097.84 198.88   Q 1085.32 202.50 1071.31 208.30   Q 1055.86 214.70 1051.07 216.84   C 1030.97 225.81 1012.97 238.67 999.42 256.41   Q 984.98 275.31 980.09 299.29   C 976.67 316.07 974.91 332.03 978.35 348.84   Q 979.99 356.89 981.70 362.21   A 0.32 0.31 -36.4 0 0 982.26 362.29   Z"
     id="path13" />
  <path
     fill="#7ebe87"
     d="   M 982.26 362.29   A 0.32 0.31 -36.4 0 1 981.70 362.21   Q 979.99 356.89 978.35 348.84   C 974.91 332.03 976.67 316.07 980.09 299.29   Q 984.98 275.31 999.42 256.41   C 1012.97 238.67 1030.97 225.81 1051.07 216.84   Q 1055.86 214.70 1071.31 208.30   Q 1085.32 202.50 1097.84 198.88   C 1107.46 196.11 1112.72 194.28 1120.63 192.50   Q 1122.14 192.16 1137.26 188.45   Q 1143.84 186.84 1148.60 185.21   C 1157.18 182.27 1166.52 179.52 1174.74 175.73   Q 1181.86 172.45 1188.98 168.40   A 0.83 0.82 68.7 0 1 1190.19 168.94   Q 1190.65 171.01 1190.85 173.79   Q 1192.07 190.72 1190.73 207.25   Q 1187.83 243.18 1177.89 276.96   Q 1176.51 281.64 1172.45 291.66   C 1162.88 315.24 1147.48 336.65 1129.50 353.26   Q 1125.73 356.75 1116.34 363.66   Q 1109.34 368.82 1102.16 372.60   Q 1091.69 378.11 1085.50 380.26   Q 1069.55 385.81 1064.10 387.08   Q 1057.67 388.58 1051.80 389.99   C 1044.89 391.65 1038.27 392.26 1031.76 392.73   Q 1019.81 393.58 1008.25 391.15   A 0.61 0.61 0.0 0 1 1007.82 390.29   Q 1024.80 354.57 1052.84 325.60   Q 1053.58 324.83 1058.13 320.06   Q 1061.85 316.17 1063.53 314.61   Q 1081.46 297.93 1100.73 282.23   C 1106.68 277.38 1107.38 268.68 1099.82 264.82   Q 1098.29 264.04 1096.15 264.93   C 1090.02 267.50 1082.93 271.06 1076.26 275.58   C 1069.84 279.93 1064.97 282.82 1058.26 287.90   C 1041.42 300.64 1033.36 306.33 1020.84 318.61   C 1013.05 326.25 1004.79 333.57 997.98 341.71   Q 990.21 351.01 982.26 362.29   Z"
     id="path14" />
  <path
     fill="#1e3652"
     d="   M 788.44 664.83   Q 786.94 668.49 785.11 671.85   Q 774.14 692.04 766.16 703.65   Q 763.05 708.17 755.74 717.18   Q 750.45 723.69 743.46 728.96   C 728.54 740.20 711.39 748.35 692.61 742.54   Q 670.94 735.83 660.58 714.12   C 658.12 708.98 655.64 702.23 654.94 696.69   C 654.33 691.82 653.19 687.82 652.91 683.06   C 652.28 672.38 652.35 662.26 654.00 651.32   Q 655.76 639.65 655.90 638.80   Q 658.63 623.09 664.10 605.55   C 669.90 587.02 678.28 568.71 689.69 552.94   Q 696.67 543.30 700.83 538.33   C 711.32 525.79 725.03 514.38 739.89 507.15   Q 743.70 505.29 752.35 502.67   C 760.67 500.16 771.32 499.67 778.57 501.15   Q 789.79 503.45 798.02 509.74   C 804.27 514.51 809.21 518.70 812.33 525.25   A 0.61 0.60 54.0 0 0 813.31 525.41   C 819.05 519.37 828.44 520.45 834.80 524.92   Q 839.64 528.33 841.85 531.62   Q 848.49 541.51 847.79 552.50   C 847.33 559.69 845.24 567.06 843.92 573.64   Q 838.96 598.56 838.38 602.67   C 837.57 608.48 836.75 613.66 836.34 619.13   Q 835.36 632.20 834.51 644.50   C 833.65 656.99 834.44 667.42 835.74 679.00   Q 836.79 688.37 841.82 696.22   C 844.80 700.88 853.02 700.50 856.94 698.64   C 863.74 695.42 867.94 692.25 872.41 685.82   Q 881.96 672.07 888.74 661.18   Q 895.64 650.10 902.27 634.93   Q 909.66 618.00 914.51 600.05   Q 915.58 596.09 918.03 585.08   Q 919.58 578.12 920.57 569.95   Q 922.79 551.60 922.96 549.58   Q 923.49 543.28 925.32 537.58   C 928.24 528.49 931.49 517.38 940.40 513.68   Q 953.14 508.39 964.76 514.94   C 973.65 519.95 974.50 532.75 973.48 541.77   Q 972.32 552.14 970.10 565.13   Q 968.95 571.86 968.58 575.91   C 968.09 581.24 966.98 585.64 966.37 590.28   Q 964.81 602.37 962.65 615.71   C 961.03 625.66 960.44 634.23 959.12 646.04   C 957.87 657.17 957.85 671.90 960.63 682.83   C 962.97 692.04 970.16 703.96 981.73 699.96   Q 989.74 697.19 996.02 690.50   Q 1001.27 684.91 1012.57 670.08   Q 1022.23 657.39 1028.53 641.43   Q 1029.55 638.84 1034.79 620.68   Q 1043.56 590.29 1059.21 564.42   Q 1064.55 555.61 1074.65 543.15   Q 1087.00 527.91 1104.27 515.27   C 1120.09 503.70 1141.17 497.51 1161.24 499.55   Q 1167.11 500.15 1175.08 504.06   Q 1182.61 507.76 1187.63 511.34   A 2.06 2.02 -27.9 0 0 1188.91 511.72   Q 1189.46 511.70 1194.20 511.38   C 1198.39 511.09 1201.60 512.64 1205.69 514.58   C 1222.50 522.51 1221.73 541.23 1220.05 556.85   C 1218.32 572.87 1218.29 588.93 1217.08 605.07   Q 1215.73 622.93 1212.66 668.84   C 1212.56 670.23 1212.05 671.26 1212.06 672.11   A 0.32 0.32 0.0 0 0 1212.60 672.35   C 1217.08 668.14 1221.03 664.63 1224.21 661.28   Q 1236.15 648.72 1240.28 644.28   C 1251.42 632.33 1260.02 620.27 1270.36 606.60   Q 1273.24 602.80 1272.95 598.51   C 1271.52 577.09 1272.98 554.80 1274.60 528.35   Q 1275.08 520.64 1275.84 515.68   C 1276.75 509.78 1276.86 505.62 1277.94 498.81   C 1279.09 491.58 1279.29 482.58 1280.57 474.99   C 1281.77 467.91 1282.20 459.87 1283.66 453.68   C 1284.78 448.94 1285.21 443.23 1286.42 437.95   C 1288.33 429.57 1289.46 423.00 1291.54 415.75   C 1292.58 412.14 1292.77 408.91 1293.85 405.70   C 1295.21 401.67 1295.68 397.89 1296.98 393.91   Q 1297.71 391.65 1301.48 378.70   Q 1307.05 359.58 1315.95 337.44   Q 1325.30 314.19 1338.54 294.53   Q 1342.89 288.07 1350.72 279.73   C 1361.53 268.23 1378.87 259.79 1394.77 263.54   Q 1406.15 266.23 1414.63 274.63   C 1420.39 280.33 1424.77 291.00 1426.66 300.08   Q 1431.10 321.49 1430.27 338.02   Q 1429.05 362.20 1424.05 388.10   Q 1422.74 394.92 1417.23 415.55   Q 1409.20 445.64 1400.89 466.18   C 1397.04 475.71 1392.53 485.91 1387.48 496.44   Q 1373.09 526.39 1367.66 535.68   C 1362.84 543.94 1358.23 552.80 1352.85 561.59   Q 1341.54 580.04 1334.54 590.07   Q 1329.91 596.72 1320.18 609.69   Q 1319.14 611.07 1319.32 613.54   Q 1321.11 637.70 1325.34 657.23   C 1328.57 672.17 1331.55 686.30 1337.89 699.12   Q 1340.29 703.96 1345.11 707.71   C 1352.66 713.59 1361.74 712.66 1369.77 707.75   Q 1382.05 700.25 1390.68 688.67   Q 1401.08 674.71 1409.55 661.34   Q 1412.77 656.25 1416.77 650.42   Q 1423.17 641.11 1424.02 639.50   Q 1428.89 630.26 1430.12 626.86   C 1433.33 618.08 1436.29 611.28 1438.99 601.68   Q 1440.72 595.55 1441.88 588.59   Q 1445.06 569.52 1446.74 553.92   Q 1447.22 549.40 1447.98 546.57   C 1448.86 543.25 1449.39 537.66 1450.96 533.47   C 1451.80 531.24 1452.36 528.06 1453.47 525.87   Q 1455.51 521.84 1457.96 519.20   C 1462.59 514.20 1470.57 513.25 1477.29 513.75   C 1494.06 514.97 1499.66 527.82 1498.58 542.74   C 1497.79 553.63 1495.79 564.06 1494.51 574.61   Q 1493.55 582.56 1492.77 586.38   C 1491.77 591.25 1491.46 596.71 1490.58 602.14   Q 1487.66 620.07 1486.33 635.11   Q 1484.82 652.29 1484.64 658.41   Q 1484.34 668.20 1486.61 681.69   C 1488.27 691.53 1496.10 705.64 1507.95 700.20   C 1516.50 696.28 1521.11 690.27 1528.38 681.88   Q 1529.78 680.26 1540.42 667.43   Q 1552.11 653.34 1557.28 636.80   C 1560.43 626.71 1562.93 616.12 1566.55 605.48   Q 1572.14 589.02 1580.88 571.30   Q 1584.74 563.48 1589.39 556.70   Q 1597.62 544.69 1599.04 542.79   C 1601.77 539.14 1607.89 532.31 1612.58 528.30   Q 1623.45 519.00 1625.22 517.71   C 1635.09 510.48 1647.40 504.12 1660.42 501.68   C 1681.31 497.77 1697.09 503.96 1711.60 518.89   Q 1713.85 521.21 1715.39 524.55   A 0.73 0.72 60.5 0 0 1716.46 524.85   Q 1720.75 521.90 1725.60 521.53   Q 1730.13 521.17 1735.09 523.58   Q 1746.02 528.89 1749.15 541.79   Q 1752.03 553.64 1749.04 564.78   Q 1744.21 582.75 1742.25 595.96   Q 1741.79 599.05 1740.60 609.49   C 1738.78 625.38 1737.93 641.89 1738.07 656.75   Q 1738.24 674.63 1739.65 681.91   Q 1741.14 689.67 1744.53 695.16   C 1746.85 698.90 1750.24 700.19 1754.79 700.23   C 1761.48 700.29 1768.68 694.00 1773.09 688.85   Q 1780.58 680.12 1785.43 672.68   C 1795.59 657.10 1803.98 640.61 1811.01 622.84   Q 1813.79 615.82 1819.19 604.71   C 1821.54 599.87 1824.80 594.77 1830.60 594.64   Q 1832.77 594.59 1836.64 596.14   C 1853.92 603.06 1842.84 631.96 1837.79 643.83   Q 1828.67 665.24 1817.84 684.65   C 1814.72 690.27 1811.51 694.41 1807.84 700.55   C 1804.27 706.53 1799.21 712.29 1794.51 717.76   C 1785.05 728.79 1769.42 741.20 1754.55 742.27   Q 1725.40 744.38 1708.53 720.58   Q 1706.76 718.08 1701.58 708.50   Q 1699.90 705.38 1699.26 703.28   C 1698.57 700.98 1697.34 698.37 1696.90 696.02   C 1695.85 690.55 1693.96 684.09 1693.46 677.93   Q 1693.07 673.05 1692.74 663.87   A 0.32 0.32 0.0 0 0 1692.12 663.77   Q 1690.71 667.69 1688.31 672.32   Q 1681.60 685.28 1673.58 698.32   C 1669.66 704.69 1663.91 711.07 1660.22 715.97   C 1654.05 724.16 1646.94 729.45 1637.36 735.95   C 1610.86 753.92 1576.54 742.79 1563.20 714.53   Q 1561.33 710.56 1559.19 705.28   A 1.10 1.10 0.0 0 0 1557.34 704.98   Q 1553.03 710.00 1549.63 714.13   Q 1538.02 728.21 1522.52 736.26   C 1512.46 741.48 1504.06 743.48 1492.87 743.13   C 1478.43 742.67 1466.95 734.17 1457.95 723.27   Q 1451.54 715.50 1447.28 705.11   Q 1442.47 693.37 1440.38 682.09   A 0.53 0.53 0.0 0 0 1439.36 682.00   C 1436.97 688.29 1433.30 693.24 1429.82 699.00   Q 1426.75 704.07 1424.00 707.88   C 1416.47 718.32 1411.89 724.52 1405.70 730.73   Q 1386.31 750.21 1360.22 755.41   C 1346.90 758.06 1332.38 753.30 1321.71 745.93   Q 1303.19 733.13 1293.03 711.89   Q 1285.15 695.44 1280.53 677.50   Q 1279.45 673.30 1275.77 656.21   A 4.68 4.59 40.8 0 1 1275.67 655.00   L 1275.79 652.17   A 0.46 0.46 0.0 0 0 1274.94 651.91   C 1273.22 654.82 1271.50 657.44 1269.36 659.78   Q 1237.17 694.92 1231.51 700.52   Q 1223.45 708.48 1211.53 719.34   A 5.29 5.29 0.0 0 0 1209.82 722.74   Q 1208.20 738.77 1206.83 748.78   C 1205.53 758.25 1205.06 768.87 1203.55 777.47   C 1202.66 782.60 1202.42 790.33 1201.65 794.64   C 1199.92 804.25 1199.25 812.98 1197.32 821.97   C 1196.00 828.12 1194.22 838.04 1192.11 847.09   C 1190.63 853.38 1188.48 863.08 1186.25 870.56   Q 1183.15 880.99 1182.62 882.65   Q 1178.16 896.78 1171.70 912.67   Q 1163.43 932.99 1151.17 951.41   C 1144.37 961.61 1135.80 971.13 1125.86 977.30   Q 1110.79 986.64 1093.28 988.24   C 1083.24 989.16 1072.10 987.22 1063.06 982.73   Q 1059.73 981.08 1053.52 976.52   C 1034.79 962.76 1026.10 934.79 1028.50 912.02   C 1029.43 903.17 1031.84 892.22 1034.92 882.79   Q 1047.73 843.59 1074.44 812.21   Q 1087.79 796.53 1100.86 783.11   Q 1128.42 754.79 1159.67 725.66   Q 1163.88 721.74 1163.75 716.51   Q 1163.46 705.21 1164.03 697.25   Q 1165.04 683.28 1166.12 659.56   A 0.17 0.17 0.0 0 0 1165.80 659.47   Q 1160.64 669.87 1153.56 682.46   Q 1146.50 695.02 1138.93 703.87   Q 1125.22 719.92 1108.35 731.84   C 1099.53 738.06 1087.47 742.93 1076.33 741.78   C 1054.50 739.51 1037.69 724.36 1031.22 703.76   A 0.35 0.35 0.0 0 0 1030.62 703.64   C 1026.20 709.12 1022.87 713.67 1018.59 717.94   C 1008.17 728.36 993.13 738.94 978.52 741.60   C 966.89 743.72 954.90 742.08 944.95 735.30   C 935.27 728.71 928.49 721.03 923.30 710.10   Q 916.70 696.19 914.54 681.49   A 0.43 0.43 0.0 0 0 913.71 681.40   Q 911.67 686.77 908.95 691.71   Q 902.03 704.27 890.30 717.82   Q 879.40 730.42 866.97 736.69   Q 857.16 741.64 846.75 742.27   Q 836.81 742.87 826.25 738.06   Q 811.99 731.55 803.24 717.24   C 795.58 704.69 791.38 691.64 790.07 677.12   Q 790.06 676.95 788.70 664.87   A 0.14 0.13 53.3 0 0 788.44 664.83   Z   M 1319.94 548.73   Q 1320.86 547.63 1321.89 545.63   Q 1330.67 528.66 1332.11 526.10   Q 1335.73 519.68 1340.51 509.21   C 1341.68 506.68 1343.62 503.18 1344.55 501.32   Q 1345.49 499.43 1352.16 484.54   Q 1356.19 475.54 1359.15 467.51   C 1363.60 455.49 1368.22 443.89 1372.12 431.88   Q 1374.81 423.60 1378.92 409.97   Q 1388.47 378.27 1392.41 343.99   Q 1394.10 329.25 1391.03 313.27   Q 1389.87 307.24 1385.30 305.25   A 1.71 1.71 0.0 0 0 1384.10 305.20   C 1379.09 306.87 1375.32 311.66 1372.85 315.87   C 1365.82 327.89 1361.65 338.59 1356.05 354.55   Q 1346.54 381.63 1338.89 408.88   Q 1337.64 413.35 1331.55 441.18   C 1330.33 446.75 1330.00 451.54 1328.92 456.56   Q 1327.78 461.82 1327.18 468.12   C 1326.50 475.25 1325.25 481.36 1324.71 488.31   C 1324.02 497.24 1322.53 506.56 1321.91 515.25   Q 1319.83 544.71 1319.60 548.59   A 0.19 0.19 0.0 0 0 1319.94 548.73   Z   M 1172.52 550.96   Q 1167.16 542.05 1156.45 540.69   C 1141.76 538.84 1129.76 549.18 1119.34 558.32   Q 1115.05 562.08 1109.68 569.59   Q 1100.51 582.41 1093.72 596.08   C 1090.89 601.79 1088.33 609.08 1086.66 613.06   Q 1084.39 618.46 1082.19 625.96   Q 1078.67 638.04 1078.41 639.05   Q 1074.01 656.20 1073.71 673.09   Q 1073.52 683.37 1077.38 690.88   C 1085.78 707.24 1106.75 685.81 1112.84 679.10   Q 1126.21 664.37 1134.76 647.79   Q 1137.59 642.30 1140.42 636.91   C 1145.05 628.09 1147.20 622.17 1151.53 612.89   Q 1153.11 609.49 1157.08 599.80   Q 1168.47 572.01 1169.64 568.68   C 1171.99 561.97 1174.21 557.70 1172.93 551.99   A 3.41 3.37 -67.0 0 0 1172.52 550.96   Z   M 704.51 695.36   C 707.71 701.39 715.85 698.69 720.19 695.69   Q 725.37 692.12 730.19 686.95   C 739.43 677.02 748.03 665.68 754.76 653.67   C 758.73 646.58 763.41 638.99 767.15 631.02   Q 773.04 618.47 776.35 610.86   C 778.44 606.05 780.40 600.29 782.55 594.98   Q 788.47 580.36 793.06 564.28   Q 793.35 563.28 794.06 558.20   A 4.26 4.25 42.9 0 0 794.00 556.67   C 791.87 547.31 782.93 540.54 773.42 540.67   C 760.01 540.84 744.28 554.97 736.44 564.68   Q 735.02 566.44 728.43 576.40   Q 724.77 581.92 721.33 588.68   Q 710.81 609.35 705.37 631.35   Q 701.58 646.71 701.19 649.37   Q 698.59 667.47 700.59 685.27   Q 700.97 688.66 704.51 695.36   Z   M 1608.03 696.72   C 1610.04 699.74 1612.47 700.30 1615.86 699.05   Q 1625.59 695.45 1632.92 687.38   Q 1649.18 669.49 1660.38 648.91   Q 1668.88 633.28 1672.49 625.76   Q 1677.28 615.76 1682.86 602.91   Q 1689.27 588.16 1695.57 568.14   C 1698.31 559.44 1697.95 551.84 1690.72 545.93   C 1680.31 537.40 1667.24 540.54 1657.24 547.75   C 1640.37 559.91 1629.08 577.13 1620.42 596.13   Q 1613.91 610.39 1607.31 634.42   C 1606.06 638.98 1605.76 643.20 1604.77 647.94   C 1602.42 659.23 1602.18 671.53 1603.28 682.71   Q 1604.08 690.77 1608.03 696.72   Z   M 1157.24 774.04   A 0.21 0.21 0.0 0 0 1156.86 773.92   Q 1155.55 775.50 1145.87 786.03   C 1127.03 806.54 1107.91 823.91 1093.88 846.12   Q 1084.78 860.54 1077.20 877.33   C 1071.99 888.86 1068.79 899.49 1067.91 911.30   Q 1067.04 923.03 1071.82 933.87   C 1074.40 939.72 1079.56 944.97 1086.01 945.41   C 1098.89 946.29 1108.05 936.06 1114.54 926.01   Q 1121.59 915.10 1125.24 906.50   Q 1133.99 885.84 1138.42 871.01   C 1140.17 865.19 1142.11 860.20 1143.44 854.72   C 1145.22 847.42 1147.87 837.90 1149.22 830.29   C 1150.55 822.79 1152.92 813.11 1154.21 804.18   C 1156.08 791.26 1157.73 782.90 1157.24 774.04   Z"
     id="path15" />
  <path
     fill="#1e3652"
     d="   M 418.65 578.55   Q 426.39 562.62 446.54 519.71   C 449.89 512.60 454.09 502.42 456.86 496.54   C 462.15 485.29 465.54 477.26 470.94 466.23   Q 474.65 458.66 478.27 450.91   Q 479.21 448.91 480.92 445.44   Q 483.17 440.87 492.08 422.97   Q 497.86 411.37 503.73 400.74   Q 513.99 382.19 520.99 370.47   C 536.33 344.79 553.11 318.88 572.63 297.64   Q 579.90 289.73 587.32 284.35   Q 594.86 278.87 605.04 279.35   Q 623.97 280.23 633.32 296.46   Q 638.61 305.64 639.59 317.56   Q 640.97 334.43 640.76 339.55   Q 639.42 370.88 638.06 380.08   Q 634.69 402.81 633.78 409.76   Q 633.13 414.73 632.48 417.76   C 631.33 423.13 631.14 427.49 630.18 432.43   Q 629.37 436.57 628.98 439.10   Q 626.70 453.88 624.32 468.39   Q 623.42 473.89 622.52 479.21   Q 621.32 486.25 620.56 493.35   C 619.62 502.07 618.42 507.71 617.25 516.75   C 616.41 523.28 613.69 538.81 612.73 549.28   C 612.09 556.28 610.91 561.39 610.38 568.00   Q 609.75 576.01 608.78 582.36   C 607.12 593.36 606.83 604.14 605.76 614.62   Q 604.93 622.83 604.63 628.43   C 604.03 639.74 603.10 649.73 603.05 661.26   Q 602.98 675.66 603.34 680.25   Q 604.48 694.77 604.58 696.53   C 605.14 706.47 606.30 713.68 607.02 724.37   C 607.65 733.60 609.27 741.19 611.05 752.72   Q 612.12 759.60 615.44 768.07   Q 623.25 787.95 635.74 803.21   C 639.63 807.97 642.11 813.07 637.56 817.91   C 636.49 819.05 633.10 821.35 631.25 821.97   C 624.12 824.34 619.18 825.16 611.69 823.35   C 587.37 817.47 572.05 798.78 564.78 775.65   Q 562.83 769.46 561.25 760.32   Q 559.30 749.03 559.10 748.10   C 557.19 739.02 556.89 729.64 555.76 720.99   Q 555.05 715.63 554.58 706.03   Q 552.59 665.88 554.33 626.63   Q 554.90 613.75 555.62 605.89   C 556.66 594.53 557.12 583.57 558.62 572.42   C 559.74 564.09 561.13 553.95 561.88 546.20   C 562.46 540.13 563.55 534.30 564.28 528.24   Q 567.78 499.24 568.78 493.28   Q 572.64 470.26 572.69 468.66   Q 572.84 463.59 574.36 456.95   C 575.34 452.66 575.45 446.83 576.74 441.37   C 578.18 435.25 578.61 429.49 579.94 422.58   Q 582.53 409.03 584.36 395.25   Q 584.65 393.06 584.89 391.25   Q 586.02 382.63 587.28 374.11   Q 588.49 365.98 588.72 360.35   Q 589.19 348.50 589.25 346.50   A 0.39 0.39 0.0 0 0 588.82 346.10   Q 588.25 346.17 587.68 346.68   Q 581.52 352.23 575.30 361.04   Q 565.60 374.77 556.57 391.06   Q 547.51 407.38 537.80 425.50   C 529.91 440.23 522.42 456.27 515.26 471.49   Q 511.62 479.23 510.38 482.03   Q 506.13 491.69 505.64 492.64   C 500.81 502.07 497.20 511.29 491.77 523.32   Q 482.58 543.69 481.06 547.19   Q 479.45 550.90 477.90 554.60   Q 471.90 569.02 451.44 619.38   Q 446.71 631.02 443.38 638.10   C 440.28 644.70 436.50 654.67 432.49 663.05   Q 424.95 678.84 421.20 685.21   Q 416.30 693.55 407.81 696.77   Q 402.10 698.94 397.99 699.26   C 392.49 699.70 384.06 696.37 379.51 693.58   C 370.31 687.92 365.95 675.92 365.44 665.50   C 364.70 650.20 365.50 632.21 366.25 609.11   Q 366.63 597.71 367.31 591.46   C 368.20 583.33 368.16 576.52 369.16 567.87   Q 369.97 560.90 371.32 543.77   C 371.60 540.27 372.43 536.06 372.67 532.69   C 373.54 520.33 373.86 511.19 375.28 499.87   Q 376.10 493.31 376.57 482.37   Q 376.95 473.47 378.45 457.69   Q 380.34 437.87 380.52 432.50   Q 381.39 407.23 381.58 397.51   Q 381.76 388.20 380.51 381.53   A 0.83 0.82 65.6 0 0 379.19 381.03   C 375.12 384.27 372.48 388.30 369.24 392.76   Q 366.77 396.16 363.95 400.84   Q 352.02 420.60 342.07 441.53   Q 331.71 463.32 331.44 463.91   Q 318.06 493.79 311.89 509.60   Q 302.58 533.48 300.74 537.95   Q 295.82 549.91 290.00 566.47   Q 280.47 593.60 275.79 606.51   Q 273.85 611.88 271.39 619.54   C 268.49 628.61 266.19 634.58 263.26 644.03   Q 263.16 644.34 259.48 655.45   Q 253.98 672.02 248.31 692.01   Q 245.75 701.02 242.20 712.16   Q 237.24 727.73 236.16 732.34   C 234.43 739.70 231.42 747.68 229.87 755.22   Q 228.80 760.45 226.48 770.99   C 226.12 772.62 225.28 774.71 224.87 776.66   C 223.34 784.05 222.21 790.62 215.51 794.26   Q 205.66 799.62 193.01 797.97   C 182.81 796.64 179.32 791.58 175.57 782.61   Q 174.20 779.35 172.66 768.97   Q 171.75 762.87 171.67 747.25   C 171.59 732.95 171.97 714.47 173.30 697.97   Q 174.42 684.02 175.05 668.18   C 175.35 660.76 176.64 653.40 176.81 645.95   Q 176.91 641.54 177.37 637.05   Q 178.65 624.57 179.53 610.11   Q 180.06 601.32 180.78 596.43   C 182.09 587.59 182.25 579.07 183.80 568.81   C 184.99 560.97 185.13 551.41 186.45 543.68   C 187.37 538.32 187.32 534.19 188.20 528.76   Q 189.36 521.61 190.34 506.84   C 190.63 502.55 192.02 495.77 192.45 490.38   C 193.20 480.78 194.94 471.98 195.66 463.15   C 196.17 456.97 197.58 451.13 198.06 445.61   Q 199.23 432.01 201.51 418.82   Q 202.70 411.96 203.15 407.64   C 204.09 398.76 205.64 391.39 206.41 383.43   C 207.04 376.92 208.52 372.05 208.83 366.12   Q 209.31 357.09 212.28 342.77   C 214.02 334.37 218.05 329.89 225.93 326.84   Q 237.01 322.55 249.59 325.57   A 4.70 4.56 -21.7 0 1 250.90 326.11   Q 257.46 330.08 259.06 335.16   Q 261.70 343.60 260.87 353.41   C 259.94 364.41 259.15 376.11 257.45 387.46   C 256.03 396.87 255.04 402.27 254.24 410.60   C 253.62 417.13 252.20 422.23 251.68 428.14   Q 251.15 434.17 249.85 442.11   C 248.90 447.86 248.64 455.49 247.80 459.76   C 246.11 468.32 245.84 474.82 244.39 483.13   Q 241.84 497.87 240.16 511.06   C 239.90 513.09 239.00 515.64 238.80 517.31   Q 236.90 533.34 235.87 541.95   Q 234.54 553.07 231.91 570.31   C 230.87 577.13 230.50 583.70 229.80 589.09   C 229.15 594.19 228.01 598.75 227.87 603.18   A 0.34 0.34 0.0 0 0 228.54 603.28   Q 229.92 598.32 232.06 592.92   C 235.51 584.19 238.62 574.97 241.91 566.74   C 248.02 551.45 252.03 540.33 259.22 521.52   Q 266.08 503.55 270.97 492.37   Q 288.33 452.67 308.16 414.60   C 311.62 407.96 315.21 401.95 320.40 392.85   Q 334.15 368.73 342.93 356.17   C 350.90 344.76 357.65 335.83 367.66 327.21   Q 371.58 323.83 379.24 320.34   C 390.38 315.25 403.69 316.37 413.68 323.39   C 418.70 326.93 421.16 331.03 424.63 336.43   C 426.48 339.32 428.12 344.95 428.69 347.30   Q 431.31 358.27 432.05 370.84   Q 433.68 398.66 431.41 429.16   Q 429.49 455.09 429.39 457.36   C 428.86 470.19 426.94 484.19 426.14 495.80   Q 425.72 501.85 423.82 519.88   Q 422.11 536.11 421.31 549.22   Q 420.49 562.75 418.60 578.53   A 0.03 0.03 0.0 0 0 418.65 578.55   Z"
     id="path16" />
</svg>
