<?xml version="1.0" encoding="UTF-8" standalone="no"?>
<svg xmlns="http://www.w3.org/2000/svg" version="1.1" viewBox="308 10 108 138">
<path fill="#5777ae" d="
  M 402.33 90.11
  Q 401.90 89.81 401.96 89.22
  Q 407.91 78.87 410.70 67.28
  Q 410.89 66.49 411.38 63.14
  Q 411.51 62.18 412.18 58.90
  A 7.14 6.92 52.2 0 0 412.29 57.91
  Q 412.84 44.02 412.28 36.37
  Q 412.23 35.70 411.07 33.05
  A 0.50 0.50 0.0 0 0 410.25 32.90
  L 409.27 33.88
  A 0.71 0.70 18.7 0 1 408.86 34.08
  L 406.55 34.40
  A 0.57 0.57 0.0 0 0 406.19 35.32
  Q 407.75 37.23 405.90 39.12
  A 1.91 1.89 73.9 0 0 405.41 40.02
  Q 404.55 43.95 401.96 46.62
  Q 400.49 47.63 397.66 50.17
  Q 395.98 51.67 393.26 52.51
  Q 393.21 52.53 393.16 52.55
  L 382.52 57.67
  A 1.74 1.72 32.6 0 1 381.67 57.85
  Q 373.08 57.54 369.90 50.20
  Q 369.23 48.65 369.42 41.74
  A 0.64 0.64 0.0 0 1 370.03 41.11
  Q 371.40 41.04 372.83 42.34
  Q 377.25 46.39 378.46 51.06
  A 2.31 2.29 15.2 0 0 379.08 52.13
  Q 381.32 54.28 384.55 54.06
  Q 387.46 53.86 390.58 51.64
  Q 392.85 50.01 396.24 48.80
  A 2.98 2.97 12.6 0 0 397.28 48.14
  Q 401.53 43.84 402.59 42.11
  C 403.73 40.26 403.87 39.02 404.29 36.57
  A 3.97 3.96 -21.2 0 1 405.04 34.87
  Q 405.70 34.00 406.03 32.61
  A 0.60 0.60 0.0 0 1 406.90 32.22
  L 407.06 32.30
  A 0.35 0.34 45.9 0 0 407.38 32.31
  Q 408.09 31.99 407.36 31.35
  Q 407.10 31.13 406.76 31.13
  Q 405.85 31.12 405.38 30.63
  A 0.54 0.54 0.0 0 1 405.76 29.72
  Q 408.16 29.65 409.03 31.32
  A 0.53 0.53 0.0 0 0 409.78 31.53
  Q 411.55 30.39 411.92 28.92
  A 0.68 0.67 -76.3 0 0 411.43 28.10
  Q 411.03 28.00 410.46 28.12
  Q 410.14 28.19 410.03 28.01
  Q 409.90 27.81 409.87 27.54
  Q 409.83 27.14 410.35 27.14
  Q 410.92 27.15 411.08 27.04
  A 0.78 0.78 0.0 0 0 411.34 26.03
  Q 409.05 21.56 409.78 15.96
  A 0.45 0.44 67.2 0 0 408.98 15.63
  C 404.48 21.78 396.14 23.54 390.13 26.59
  A 4.13 4.00 29.0 0 1 388.53 27.02
  Q 387.51 27.08 383.46 28.31
  Q 381.50 28.90 377.61 29.62
  Q 370.79 30.88 363.71 33.60
  A 4.43 4.09 -57.6 0 1 362.77 33.85
  Q 357.09 34.66 351.78 36.74
  Q 348.43 38.32 345.07 39.89
  C 338.34 43.04 332.87 47.22 327.48 52.48
  C 325.79 54.14 324.14 56.69 322.33 58.69
  Q 318.14 63.30 315.24 70.10
  C 314.06 72.86 313.93 76.02 313.09 79.09
  Q 312.34 81.84 312.29 85.97
  Q 312.22 91.67 312.30 95.82
  C 312.33 97.56 312.89 99.63 313.21 101.45
  Q 313.46 103.22 314.17 104.42
  A 0.51 0.51 0.0 0 0 314.92 104.56
  Q 318.23 102.07 323.29 101.73
  A 0.26 0.26 0.0 0 1 323.57 102.00
  L 323.53 102.96
  A 0.07 0.05 -87.5 0 1 323.49 103.01
  Q 320.94 103.76 319.58 104.81
  A 1.35 1.32 -12.3 0 0 319.09 105.56
  Q 318.22 109.34 318.87 112.59
  A 0.63 0.63 0.0 0 0 320.01 112.81
  C 324.08 106.57 327.62 99.95 332.57 94.14
  A 0.64 0.63 -63.0 0 0 332.24 93.11
  Q 327.05 91.89 325.98 86.51
  A 1.59 1.58 56.9 0 1 326.23 85.30
  C 330.84 78.52 333.14 75.63 339.73 72.37
  C 345.10 69.72 342.54 64.26 343.10 59.77
  A 0.37 0.37 0.0 0 1 343.73 59.56
  L 352.48 68.30
  A 0.84 0.84 0.0 0 0 353.35 68.51
  C 358.25 66.88 360.05 66.02 363.86 65.34
  C 368.11 64.59 370.42 64.01 373.74 61.89
  A 0.68 0.68 0.0 0 1 374.63 62.89
  L 367.86 71.24
  Q 367.70 70.67 367.25 70.22
  Q 367.91 68.72 365.29 69.03
  Q 358.93 71.09 354.26 74.27
  Q 344.45 80.97 335.89 90.89
  Q 334.46 92.55 335.75 92.49
  Q 334.35 94.28 332.77 96.02
  C 323.88 105.77 320.82 116.13 316.42 129.11
  C 314.57 134.57 313.76 138.39 311.74 142.96
  A 0.86 0.85 30.4 0 1 310.44 143.29
  L 310.34 143.09
  A 4.15 4.14 -49.5 0 1 310.09 139.86
  L 315.82 122.67
  A 5.94 5.89 -40.5 0 0 316.05 119.90
  C 315.55 116.80 314.16 113.53 313.39 110.39
  Q 309.57 94.77 311.88 79.56
  C 313.44 69.26 318.78 59.39 325.54 52.54
  Q 335.72 42.22 350.01 36.50
  Q 360.98 32.09 362.73 32.06
  Q 362.96 32.06 372.43 29.91
  Q 379.12 28.40 382.04 27.41
  Q 397.23 22.29 410.13 13.10
  A 0.38 0.38 0.0 0 1 410.73 13.36
  C 411.34 18.02 412.71 22.93 413.17 27.96
  Q 414.05 37.69 413.99 49.85
  Q 413.95 57.68 412.63 64.04
  C 410.70 73.41 407.81 82.43 402.33 90.11
  Z"
/>
<path fill="#7e9dc9" d="
  M 401.96 46.62
  Q 393.30 64.41 390.92 70.69
  C 386.22 83.12 385.03 99.31 383.56 109.63
  A 0.22 0.22 0.0 0 0 383.92 109.82
  C 386.67 107.30 388.81 106.14 390.95 103.39
  C 392.47 101.44 395.63 98.90 397.69 95.92
  Q 399.95 92.64 401.96 89.22
  Q 401.90 89.81 402.33 90.11
  Q 395.03 102.27 384.68 110.53
  Q 381.41 111.15 378.49 113.74
  Q 378.01 114.16 375.23 114.82
  A 0.34 0.34 0.0 0 1 374.82 114.42
  Q 375.16 112.81 376.65 108.09
  C 378.50 102.22 378.17 99.28 375.43 94.02
  Q 371.79 87.03 366.74 82.63
  A 0.88 0.87 24.6 0 1 366.45 81.86
  L 367.86 71.24
  L 374.63 62.89
  A 0.68 0.68 0.0 0 0 373.74 61.89
  C 370.42 64.01 368.11 64.59 363.86 65.34
  C 360.05 66.02 358.25 66.88 353.35 68.51
  A 0.84 0.84 0.0 0 1 352.48 68.30
  L 343.73 59.56
  A 0.37 0.37 0.0 0 0 343.10 59.77
  C 342.54 64.26 345.10 69.72 339.73 72.37
  C 333.14 75.63 330.84 78.52 326.23 85.30
  A 1.59 1.58 56.9 0 0 325.98 86.51
  Q 327.05 91.89 332.24 93.11
  A 0.64 0.63 -63.0 0 1 332.57 94.14
  C 327.62 99.95 324.08 106.57 320.01 112.81
  A 0.63 0.63 0.0 0 1 318.87 112.59
  Q 318.22 109.34 319.09 105.56
  A 1.35 1.32 -12.3 0 0 319.58 104.81
  Q 320.94 103.76 323.49 103.01
  A 0.07 0.05 -87.5 0 0 323.53 102.96
  L 323.57 102.00
  A 0.26 0.26 0.0 0 0 323.29 101.73
  Q 318.23 102.07 314.92 104.56
  A 0.51 0.51 0.0 0 1 314.17 104.42
  Q 313.46 103.22 313.21 101.45
  Q 320.15 102.00 325.46 97.97
  A 1.01 1.01 0.0 0 0 325.85 96.97
  C 325.05 92.78 323.52 85.74 325.81 81.77
  Q 331.09 72.62 332.84 65.56
  Q 333.35 63.51 336.17 59.24
  C 337.93 56.60 341.69 54.74 343.90 52.65
  C 348.26 48.51 352.01 43.11 351.78 36.74
  Q 357.09 34.66 362.77 33.85
  A 4.43 4.09 -57.6 0 0 363.71 33.60
  Q 370.79 30.88 377.61 29.62
  Q 381.50 28.90 383.46 28.31
  Q 387.51 27.08 388.53 27.02
  A 4.13 4.00 29.0 0 0 390.13 26.59
  C 396.14 23.54 404.48 21.78 408.98 15.63
  A 0.45 0.44 67.2 0 1 409.78 15.96
  Q 409.05 21.56 411.34 26.03
  A 0.78 0.78 0.0 0 1 411.08 27.04
  Q 410.92 27.15 410.35 27.14
  Q 409.83 27.14 409.87 27.54
  Q 409.90 27.81 410.03 28.01
  Q 410.14 28.19 410.46 28.12
  Q 411.03 28.00 411.43 28.10
  A 0.68 0.67 -76.3 0 1 411.92 28.92
  Q 411.55 30.39 409.78 31.53
  A 0.53 0.53 0.0 0 1 409.03 31.32
  Q 408.16 29.65 405.76 29.72
  A 0.54 0.54 0.0 0 0 405.38 30.63
  Q 405.85 31.12 406.76 31.13
  Q 407.10 31.13 407.36 31.35
  Q 408.09 31.99 407.38 32.31
  A 0.35 0.34 45.9 0 1 407.06 32.30
  L 406.90 32.22
  A 0.60 0.60 0.0 0 0 406.03 32.61
  Q 405.70 34.00 405.04 34.87
  A 3.97 3.96 -21.2 0 0 404.29 36.57
  C 403.87 39.02 403.73 40.26 402.59 42.11
  Q 401.53 43.84 397.28 48.14
  A 2.98 2.97 12.6 0 1 396.24 48.80
  Q 392.85 50.01 390.58 51.64
  Q 387.46 53.86 384.55 54.06
  Q 381.32 54.28 379.08 52.13
  A 2.31 2.29 15.2 0 1 378.46 51.06
  Q 377.25 46.39 372.83 42.34
  Q 371.40 41.04 370.03 41.11
  A 0.64 0.64 0.0 0 0 369.42 41.74
  Q 369.23 48.65 369.90 50.20
  Q 373.08 57.54 381.67 57.85
  A 1.74 1.72 32.6 0 0 382.52 57.67
  L 393.16 52.55
  Q 393.21 52.53 393.26 52.51
  Q 395.98 51.67 397.66 50.17
  Q 400.49 47.63 401.96 46.62
  Z"
/>
<path fill="#90abcd" d="
  M 401.96 89.22
  Q 399.95 92.64 397.69 95.92
  C 395.63 98.90 392.47 101.44 390.95 103.39
  C 388.81 106.14 386.67 107.30 383.92 109.82
  A 0.22 0.22 0.0 0 1 383.56 109.63
  C 385.03 99.31 386.22 83.12 390.92 70.69
  Q 393.30 64.41 401.96 46.62
  Q 404.55 43.95 405.41 40.02
  A 1.91 1.89 73.9 0 1 405.90 39.12
  Q 407.75 37.23 406.19 35.32
  A 0.57 0.57 0.0 0 1 406.55 34.40
  L 408.86 34.08
  A 0.71 0.70 18.7 0 0 409.27 33.88
  L 410.25 32.90
  A 0.50 0.50 0.0 0 1 411.07 33.05
  Q 412.23 35.70 412.28 36.37
  Q 412.84 44.02 412.29 57.91
  A 7.14 6.92 52.2 0 1 412.18 58.90
  Q 411.51 62.18 411.38 63.14
  Q 410.89 66.49 410.70 67.28
  Q 407.91 78.87 401.96 89.22
  Z"
/>
<path fill="#304a83" d="
  M 365.29 69.03
  Q 348.90 78.98 335.75 92.49
  Q 334.46 92.55 335.89 90.89
  Q 344.45 80.97 354.26 74.27
  Q 358.93 71.09 365.29 69.03
  Z"
/>
<path fill="#3e5d9a" d="
  M 367.25 70.22
  Q 367.70 70.67 367.86 71.24
  L 366.45 81.86
  A 0.88 0.87 24.6 0 0 366.74 82.63
  Q 371.79 87.03 375.43 94.02
  C 378.17 99.28 378.50 102.22 376.65 108.09
  Q 375.16 112.81 374.82 114.42
  A 0.34 0.34 0.0 0 0 375.23 114.82
  Q 378.01 114.16 378.49 113.74
  Q 381.41 111.15 384.68 110.53
  Q 375.90 118.09 365.75 121.82
  C 365.79 117.20 364.16 114.90 361.59 109.87
  Q 359.48 105.73 357.29 104.18
  C 351.57 100.12 344.72 98.45 338.88 103.39
  Q 336.83 105.12 334.34 109.81
  Q 333.57 109.77 333.60 108.70
  Q 339.99 97.99 344.93 92.69
  Q 349.86 87.40 354.76 82.09
  C 358.53 77.99 363.13 74.27 367.25 70.22
  Z"
/>
<path fill="#728fbc" d="
  M 315.28 79.70
  A 0.18 0.17 65.5 0 1 315.36 79.46
  L 315.86 79.22
  A 0.12 0.11 58.5 0 1 316.01 79.26
  Q 320.77 87.45 321.65 96.33
  A 0.70 0.70 0.0 0 1 320.87 97.09
  L 320.51 97.05
  A 0.67 0.67 0.0 0 1 319.92 96.45
  Q 319.87 96.00 319.23 91.05
  C 318.74 87.29 316.95 83.13 315.28 79.70
  Z"
/>
<path fill="#5777ae" d="
  M 365.75 121.82
  C 354.31 126.68 343.46 128.80 331.67 127.24
  A 2.58 2.58 0.0 0 0 328.99 128.71
  L 322.56 142.55
  A 0.58 0.58 0.0 0 1 321.57 142.64
  L 321.33 142.32
  A 1.57 1.56 -53.4 0 1 321.13 140.91
  Q 324.60 130.84 327.57 121.08
  Q 329.34 115.30 333.60 108.70
  Q 333.57 109.77 334.34 109.81
  C 331.57 113.89 329.82 119.20 326.98 125.95
  Q 326.49 127.10 326.57 129.73
  A 0.21 0.21 0.0 0 0 326.93 129.86
  Q 330.26 125.96 335.20 125.97
  C 345.14 125.99 355.17 125.15 363.70 120.30
  A 1.02 1.02 0.0 0 0 364.03 118.81
  Q 360.78 114.29 356.13 112.58
  C 352.79 111.35 349.14 112.94 346.81 109.51
  Q 345.62 107.75 344.65 105.20
  A 0.89 0.88 -20.6 0 0 343.51 104.69
  Q 338.65 106.49 334.34 109.81
  Q 336.83 105.12 338.88 103.39
  C 344.72 98.45 351.57 100.12 357.29 104.18
  Q 359.48 105.73 361.59 109.87
  C 364.16 114.90 365.79 117.20 365.75 121.82
  Z"
/>
<path fill="#728fbc" d="
  M 334.34 109.81
  Q 338.65 106.49 343.51 104.69
  A 0.89 0.88 -20.6 0 1 344.65 105.20
  Q 345.62 107.75 346.81 109.51
  C 349.14 112.94 352.79 111.35 356.13 112.58
  Q 360.78 114.29 364.03 118.81
  A 1.02 1.02 0.0 0 1 363.70 120.30
  C 355.17 125.15 345.14 125.99 335.20 125.97
  Q 330.26 125.96 326.93 129.86
  A 0.21 0.21 0.0 0 1 326.57 129.73
  Q 326.49 127.10 326.98 125.95
  C 329.82 119.20 331.57 113.89 334.34 109.81
  Z"
/>
<path fill="#90abcd" d="
  M 313.21 101.45
  C 312.89 99.63 312.33 97.56 312.30 95.82
  Q 312.22 91.67 312.29 85.97
  Q 312.34 81.84 313.09 79.09
  C 313.93 76.02 314.06 72.86 315.24 70.10
  Q 318.14 63.30 322.33 58.69
  C 324.14 56.69 325.79 54.14 327.48 52.48
  C 332.87 47.22 338.34 43.04 345.07 39.89
  Q 348.43 38.32 351.78 36.74
  C 352.01 43.11 348.26 48.51 343.90 52.65
  C 341.69 54.74 337.93 56.60 336.17 59.24
  Q 333.35 63.51 332.84 65.56
  Q 331.09 72.62 325.81 81.77
  C 323.52 85.74 325.05 92.78 325.85 96.97
  A 1.01 1.01 0.0 0 1 325.46 97.97
  Q 320.15 102.00 313.21 101.45
  Z
  M 315.28 79.70
  C 316.95 83.13 318.74 87.29 319.23 91.05
  Q 319.87 96.00 319.92 96.45
  A 0.67 0.67 0.0 0 0 320.51 97.05
  L 320.87 97.09
  A 0.70 0.70 0.0 0 0 321.65 96.33
  Q 320.77 87.45 316.01 79.26
  A 0.12 0.11 58.5 0 0 315.86 79.22
  L 315.36 79.46
  A 0.18 0.17 65.5 0 0 315.28 79.70
  Z"
/>
</svg>
